SplineFontDB: 3.2
FontName: RussianGuage
FullName: RussianGuage
FamilyName: RussianGuage
Weight: Regular
Copyright: Copyright (c) 2023, victor
UComments: "2023-11-30: Created with FontForge (http://fontforge.org)"
Version: 001.000
ItalicAngle: 0
UnderlinePosition: -102
UnderlineWidth: 51
Ascent: 896
Descent: 128
InvalidEm: 0
LayerCount: 2
Layer: 0 0 "Back" 1
Layer: 1 0 "Fore" 0
XUID: [1021 173 350157828 12173]
StyleMap: 0x0000
FSType: 0
OS2Version: 0
OS2_WeightWidthSlopeOnly: 0
OS2_UseTypoMetrics: 1
CreationTime: 1701313255
ModificationTime: 1701423915
OS2TypoAscent: 0
OS2TypoAOffset: 1
OS2TypoDescent: 0
OS2TypoDOffset: 1
OS2TypoLinegap: 92
OS2WinAscent: 0
OS2WinAOffset: 1
OS2WinDescent: 0
OS2WinDOffset: 1
HheadAscent: 0
HheadAOffset: 1
HheadDescent: 0
HheadDOffset: 1
MarkAttachClasses: 1
DEI: 91125
Encoding: UnicodeFull
UnicodeInterp: none
NameList: AGL For New Fonts
DisplaySize: -48
AntiAlias: 1
FitToEm: 0
WinInfo: 0 77 26
BeginPrivate: 0
EndPrivate
BeginChars: 1114112 77

StartChar: uni0410
Encoding: 1040 1040 0
Width: 768
Flags: HW
LayerCount: 2
Fore
SplineSet
108 0 m 2
 108 -11.0380859375 116.961914062 -20 128 -20 c 0
 139.038085938 -20 148 -11.0380859375 148 0 c 2
 148 512 l 2
 148 523.038085938 139.038085938 532 128 532 c 0
 116.961914062 532 108 523.038085938 108 512 c 2
 108 0 l 2
113.860351562 526.139648438 m 2
 101.302734375 513.581054688 110.29296875 492 128 492 c 0
 133.51953125 492 138.51953125 494.240234375 142.139648438 497.860351562 c 2
 398.139648438 753.860351562 l 2
 410.697265625 766.418945312 401.70703125 788 384 788 c 0
 378.48046875 788 373.48046875 785.759765625 369.860351562 782.139648438 c 2
 113.860351562 526.139648438 l 2
384 788 m 2
 372.961914062 788 364 779.038085938 364 768 c 0
 364 756.961914062 372.961914062 748 384 748 c 2
 640 748 l 2
 651.038085938 748 660 756.961914062 660 768 c 0
 660 779.038085938 651.038085938 788 640 788 c 2
 384 788 l 2
660 768 m 2
 660 779.038085938 651.038085938 788 640 788 c 0
 628.961914062 788 620 779.038085938 620 768 c 2
 620 0 l 2
 620 -11.0380859375 628.961914062 -20 640 -20 c 0
 651.038085938 -20 660 -11.0380859375 660 0 c 2
 660 768 l 2
128 276 m 2
 116.961914062 276 108 267.038085938 108 256 c 0
 108 244.961914062 116.961914062 236 128 236 c 2
 640 236 l 2
 651.038085938 236 660 244.961914062 660 256 c 0
 660 267.038085938 651.038085938 276 640 276 c 2
 128 276 l 2
EndSplineSet
EndChar

StartChar: A
Encoding: 65 65 1
Width: 768
Flags: HW
LayerCount: 2
Fore
SplineSet
108 0 m 2
 108 -11.0380859375 116.961914062 -20 128 -20 c 0
 139.038085938 -20 148 -11.0380859375 148 0 c 2
 148 512 l 2
 148 523.038085938 139.038085938 532 128 532 c 0
 116.961914062 532 108 523.038085938 108 512 c 2
 108 0 l 2
113.860351562 526.139648438 m 2
 101.302734375 513.581054688 110.29296875 492 128 492 c 0
 133.51953125 492 138.51953125 494.240234375 142.139648438 497.860351562 c 2
 398.139648438 753.860351562 l 2
 410.697265625 766.418945312 401.70703125 788 384 788 c 0
 378.48046875 788 373.48046875 785.759765625 369.860351562 782.139648438 c 2
 113.860351562 526.139648438 l 2
384 788 m 2
 372.961914062 788 364 779.038085938 364 768 c 0
 364 756.961914062 372.961914062 748 384 748 c 2
 640 748 l 2
 651.038085938 748 660 756.961914062 660 768 c 0
 660 779.038085938 651.038085938 788 640 788 c 2
 384 788 l 2
660 768 m 2
 660 779.038085938 651.038085938 788 640 788 c 0
 628.961914062 788 620 779.038085938 620 768 c 2
 620 0 l 2
 620 -11.0380859375 628.961914062 -20 640 -20 c 0
 651.038085938 -20 660 -11.0380859375 660 0 c 2
 660 768 l 2
128 276 m 2
 116.961914062 276 108 267.038085938 108 256 c 0
 108 244.961914062 116.961914062 236 128 236 c 2
 640 236 l 2
 651.038085938 236 660 244.961914062 660 256 c 0
 660 267.038085938 651.038085938 276 640 276 c 2
 128 276 l 2
EndSplineSet
EndChar

StartChar: zero
Encoding: 48 48 2
Width: 768
Flags: HW
LayerCount: 2
Fore
SplineSet
256 788 m 2
 244.961914062 788 236 779.038085938 236 768 c 0
 236 756.961914062 244.961914062 748 256 748 c 2
 512 748 l 2
 523.038085938 748 532 756.961914062 532 768 c 0
 532 779.038085938 523.038085938 788 512 788 c 2
 256 788 l 2
526.139648438 782.139648438 m 2
 513.581054688 794.697265625 492 785.70703125 492 768 c 0
 492 762.48046875 494.240234375 757.48046875 497.860351562 753.860351562 c 2
 625.860351562 625.860351562 l 2
 638.418945312 613.302734375 660 622.29296875 660 640 c 0
 660 645.51953125 657.759765625 650.51953125 654.139648438 654.139648438 c 2
 526.139648438 782.139648438 l 2
660 640 m 2
 660 651.038085938 651.038085938 660 640 660 c 0
 628.961914062 660 620 651.038085938 620 640 c 2
 620 128 l 2
 620 116.961914062 628.961914062 108 640 108 c 0
 651.038085938 108 660 116.961914062 660 128 c 2
 660 640 l 2
654.139648438 113.860351562 m 2
 666.697265625 126.418945312 657.70703125 148 640 148 c 0
 634.48046875 148 629.48046875 145.759765625 625.860351562 142.139648438 c 2
 497.860351562 14.1396484375 l 2
 485.302734375 1.5810546875 494.29296875 -20 512 -20 c 0
 517.51953125 -20 522.51953125 -17.759765625 526.139648438 -14.1396484375 c 2
 654.139648438 113.860351562 l 2
512 -20 m 2
 523.038085938 -20 532 -11.0380859375 532 0 c 0
 532 11.0380859375 523.038085938 20 512 20 c 2
 256 20 l 2
 244.961914062 20 236 11.0380859375 236 0 c 0
 236 -11.0380859375 244.961914062 -20 256 -20 c 2
 512 -20 l 2
241.860351562 -14.1396484375 m 2
 254.418945312 -26.697265625 276 -17.70703125 276 0 c 0
 276 5.51953125 273.759765625 10.51953125 270.139648438 14.1396484375 c 2
 142.139648438 142.139648438 l 2
 129.581054688 154.697265625 108 145.70703125 108 128 c 0
 108 122.48046875 110.240234375 117.48046875 113.860351562 113.860351562 c 2
 241.860351562 -14.1396484375 l 2
108 128 m 2
 108 116.961914062 116.961914062 108 128 108 c 0
 139.038085938 108 148 116.961914062 148 128 c 2
 148 640 l 2
 148 651.038085938 139.038085938 660 128 660 c 0
 116.961914062 660 108 651.038085938 108 640 c 2
 108 128 l 2
113.860351562 654.139648438 m 2
 101.302734375 641.581054688 110.29296875 620 128 620 c 0
 133.51953125 620 138.51953125 622.240234375 142.139648438 625.860351562 c 2
 270.139648438 753.860351562 l 2
 282.697265625 766.418945312 273.70703125 788 256 788 c 0
 250.48046875 788 245.48046875 785.759765625 241.860351562 782.139648438 c 2
 113.860351562 654.139648438 l 2
EndSplineSet
EndChar

StartChar: one
Encoding: 49 49 3
Width: 768
Flags: HW
LayerCount: 2
Fore
SplineSet
113.860351562 526.139648438 m 2
 101.302734375 513.581054688 110.29296875 492 128 492 c 0
 133.51953125 492 138.51953125 494.240234375 142.139648438 497.860351562 c 2
 398.139648438 753.860351562 l 2
 410.697265625 766.418945312 401.70703125 788 384 788 c 0
 378.48046875 788 373.48046875 785.759765625 369.860351562 782.139648438 c 2
 113.860351562 526.139648438 l 2
404 768 m 2
 404 779.038085938 395.038085938 788 384 788 c 0
 372.961914062 788 364 779.038085938 364 768 c 2
 364 0 l 2
 364 -11.0380859375 372.961914062 -20 384 -20 c 0
 395.038085938 -20 404 -11.0380859375 404 0 c 2
 404 768 l 2
EndSplineSet
EndChar

StartChar: two
Encoding: 50 50 4
Width: 768
Flags: HW
LayerCount: 2
Fore
SplineSet
113.860351562 654.139648438 m 2
 101.302734375 641.581054688 110.29296875 620 128 620 c 0
 133.51953125 620 138.51953125 622.240234375 142.139648438 625.860351562 c 2
 270.139648438 753.860351562 l 2
 282.697265625 766.418945312 273.70703125 788 256 788 c 0
 250.48046875 788 245.48046875 785.759765625 241.860351562 782.139648438 c 2
 113.860351562 654.139648438 l 2
256 788 m 2
 244.961914062 788 236 779.038085938 236 768 c 0
 236 756.961914062 244.961914062 748 256 748 c 2
 512 748 l 2
 523.038085938 748 532 756.961914062 532 768 c 0
 532 779.038085938 523.038085938 788 512 788 c 2
 256 788 l 2
526.139648438 782.139648438 m 2
 513.581054688 794.697265625 492 785.70703125 492 768 c 0
 492 762.48046875 494.240234375 757.48046875 497.860351562 753.860351562 c 2
 625.860351562 625.860351562 l 2
 638.418945312 613.302734375 660 622.29296875 660 640 c 0
 660 645.51953125 657.759765625 650.51953125 654.139648438 654.139648438 c 2
 526.139648438 782.139648438 l 2
660 640 m 2
 660 651.038085938 651.038085938 660 640 660 c 0
 628.961914062 660 620 651.038085938 620 640 c 2
 620 512 l 2
 620 500.961914062 628.961914062 492 640 492 c 0
 651.038085938 492 660 500.961914062 660 512 c 2
 660 640 l 2
654.139648438 497.860351562 m 2
 666.697265625 510.418945312 657.70703125 532 640 532 c 0
 634.48046875 532 629.48046875 529.759765625 625.860351562 526.139648438 c 2
 113.860351562 14.1396484375 l 2
 101.302734375 1.5810546875 110.29296875 -20 128 -20 c 0
 133.51953125 -20 138.51953125 -17.759765625 142.139648438 -14.1396484375 c 2
 654.139648438 497.860351562 l 2
128 20 m 2
 116.961914062 20 108 11.0380859375 108 0 c 0
 108 -11.0380859375 116.961914062 -20 128 -20 c 2
 640 -20 l 2
 651.038085938 -20 660 -11.0380859375 660 0 c 0
 660 11.0380859375 651.038085938 20 640 20 c 2
 128 20 l 2
EndSplineSet
EndChar

StartChar: three
Encoding: 51 51 5
Width: 768
Flags: HW
LayerCount: 2
Fore
SplineSet
128 788 m 2
 116.961914062 788 108 779.038085938 108 768 c 0
 108 756.961914062 116.961914062 748 128 748 c 2
 640 748 l 2
 651.038085938 748 660 756.961914062 660 768 c 0
 660 779.038085938 651.038085938 788 640 788 c 2
 128 788 l 2
654.139648438 753.860351562 m 2
 666.697265625 766.418945312 657.70703125 788 640 788 c 0
 634.48046875 788 629.48046875 785.759765625 625.860351562 782.139648438 c 2
 241.860351562 398.139648438 l 2
 229.302734375 385.581054688 238.29296875 364 256 364 c 0
 261.51953125 364 266.51953125 366.240234375 270.139648438 369.860351562 c 2
 654.139648438 753.860351562 l 2
256 404 m 2
 244.961914062 404 236 395.038085938 236 384 c 0
 236 372.961914062 244.961914062 364 256 364 c 2
 512 364 l 2
 523.038085938 364 532 372.961914062 532 384 c 0
 532 395.038085938 523.038085938 404 512 404 c 2
 256 404 l 2
526.139648438 398.139648438 m 2
 513.581054688 410.697265625 492 401.70703125 492 384 c 0
 492 378.48046875 494.240234375 373.48046875 497.860351562 369.860351562 c 2
 625.860351562 241.860351562 l 2
 638.418945312 229.302734375 660 238.29296875 660 256 c 0
 660 261.51953125 657.759765625 266.51953125 654.139648438 270.139648438 c 2
 526.139648438 398.139648438 l 2
660 256 m 2
 660 267.038085938 651.038085938 276 640 276 c 0
 628.961914062 276 620 267.038085938 620 256 c 2
 620 128 l 2
 620 116.961914062 628.961914062 108 640 108 c 0
 651.038085938 108 660 116.961914062 660 128 c 2
 660 256 l 2
654.139648438 113.860351562 m 2
 666.697265625 126.418945312 657.70703125 148 640 148 c 0
 634.48046875 148 629.48046875 145.759765625 625.860351562 142.139648438 c 2
 497.860351562 14.1396484375 l 2
 485.302734375 1.5810546875 494.29296875 -20 512 -20 c 0
 517.51953125 -20 522.51953125 -17.759765625 526.139648438 -14.1396484375 c 2
 654.139648438 113.860351562 l 2
512 -20 m 2
 523.038085938 -20 532 -11.0380859375 532 0 c 0
 532 11.0380859375 523.038085938 20 512 20 c 2
 256 20 l 2
 244.961914062 20 236 11.0380859375 236 0 c 0
 236 -11.0380859375 244.961914062 -20 256 -20 c 2
 512 -20 l 2
241.860351562 -14.1396484375 m 2
 254.418945312 -26.697265625 276 -17.70703125 276 0 c 0
 276 5.51953125 273.759765625 10.51953125 270.139648438 14.1396484375 c 2
 142.139648438 142.139648438 l 2
 129.581054688 154.697265625 108 145.70703125 108 128 c 0
 108 122.48046875 110.240234375 117.48046875 113.860351562 113.860351562 c 2
 241.860351562 -14.1396484375 l 2
EndSplineSet
EndChar

StartChar: four
Encoding: 52 52 6
Width: 768
Flags: HW
LayerCount: 2
Fore
SplineSet
526.139648438 753.860351562 m 2
 538.697265625 766.418945312 529.70703125 788 512 788 c 0
 506.48046875 788 501.48046875 785.759765625 497.860351562 782.139648438 c 2
 113.860351562 398.139648438 l 2
 101.302734375 385.581054688 110.29296875 364 128 364 c 0
 133.51953125 364 138.51953125 366.240234375 142.139648438 369.860351562 c 2
 526.139648438 753.860351562 l 2
148 384 m 2
 148 395.038085938 139.038085938 404 128 404 c 0
 116.961914062 404 108 395.038085938 108 384 c 2
 108 256 l 2
 108 244.961914062 116.961914062 236 128 236 c 0
 139.038085938 236 148 244.961914062 148 256 c 2
 148 384 l 2
128 276 m 2
 116.961914062 276 108 267.038085938 108 256 c 0
 108 244.961914062 116.961914062 236 128 236 c 2
 640 236 l 2
 651.038085938 236 660 244.961914062 660 256 c 0
 660 267.038085938 651.038085938 276 640 276 c 2
 128 276 l 2
660 512 m 2
 660 523.038085938 651.038085938 532 640 532 c 0
 628.961914062 532 620 523.038085938 620 512 c 2
 620 0 l 2
 620 -11.0380859375 628.961914062 -20 640 -20 c 0
 651.038085938 -20 660 -11.0380859375 660 0 c 2
 660 512 l 2
EndSplineSet
EndChar

StartChar: five
Encoding: 53 53 7
Width: 768
Flags: HW
LayerCount: 2
Fore
SplineSet
640 748 m 2
 651.038085938 748 660 756.961914062 660 768 c 0
 660 779.038085938 651.038085938 788 640 788 c 2
 128 788 l 2
 116.961914062 788 108 779.038085938 108 768 c 0
 108 756.961914062 116.961914062 748 128 748 c 2
 640 748 l 2
148 768 m 2
 148 779.038085938 139.038085938 788 128 788 c 0
 116.961914062 788 108 779.038085938 108 768 c 2
 108 384 l 2
 108 372.961914062 116.961914062 364 128 364 c 0
 139.038085938 364 148 372.961914062 148 384 c 2
 148 768 l 2
128 404 m 2
 116.961914062 404 108 395.038085938 108 384 c 0
 108 372.961914062 116.961914062 364 128 364 c 2
 512 364 l 2
 523.038085938 364 532 372.961914062 532 384 c 0
 532 395.038085938 523.038085938 404 512 404 c 2
 128 404 l 2
526.139648438 398.139648438 m 2
 513.581054688 410.697265625 492 401.70703125 492 384 c 0
 492 378.48046875 494.240234375 373.48046875 497.860351562 369.860351562 c 2
 625.860351562 241.860351562 l 2
 638.418945312 229.302734375 660 238.29296875 660 256 c 0
 660 261.51953125 657.759765625 266.51953125 654.139648438 270.139648438 c 2
 526.139648438 398.139648438 l 2
660 256 m 2
 660 267.038085938 651.038085938 276 640 276 c 0
 628.961914062 276 620 267.038085938 620 256 c 2
 620 128 l 2
 620 116.961914062 628.961914062 108 640 108 c 0
 651.038085938 108 660 116.961914062 660 128 c 2
 660 256 l 2
654.139648438 113.860351562 m 2
 666.697265625 126.418945312 657.70703125 148 640 148 c 0
 634.48046875 148 629.48046875 145.759765625 625.860351562 142.139648438 c 2
 497.860351562 14.1396484375 l 2
 485.302734375 1.5810546875 494.29296875 -20 512 -20 c 0
 517.51953125 -20 522.51953125 -17.759765625 526.139648438 -14.1396484375 c 2
 654.139648438 113.860351562 l 2
512 -20 m 2
 523.038085938 -20 532 -11.0380859375 532 0 c 0
 532 11.0380859375 523.038085938 20 512 20 c 2
 256 20 l 2
 244.961914062 20 236 11.0380859375 236 0 c 0
 236 -11.0380859375 244.961914062 -20 256 -20 c 2
 512 -20 l 2
241.860351562 -14.1396484375 m 2
 254.418945312 -26.697265625 276 -17.70703125 276 0 c 0
 276 5.51953125 273.759765625 10.51953125 270.139648438 14.1396484375 c 2
 142.139648438 142.139648438 l 2
 129.581054688 154.697265625 108 145.70703125 108 128 c 0
 108 122.48046875 110.240234375 117.48046875 113.860351562 113.860351562 c 2
 241.860351562 -14.1396484375 l 2
EndSplineSet
EndChar

StartChar: six
Encoding: 54 54 8
Width: 768
Flags: HW
LayerCount: 2
Fore
SplineSet
526.139648438 753.860351562 m 2
 538.697265625 766.418945312 529.70703125 788 512 788 c 0
 506.48046875 788 501.48046875 785.759765625 497.860351562 782.139648438 c 2
 113.860351562 398.139648438 l 2
 101.302734375 385.581054688 110.29296875 364 128 364 c 0
 133.51953125 364 138.51953125 366.240234375 142.139648438 369.860351562 c 2
 526.139648438 753.860351562 l 2
148 384 m 2
 148 395.038085938 139.038085938 404 128 404 c 0
 116.961914062 404 108 395.038085938 108 384 c 2
 108 128 l 2
 108 116.961914062 116.961914062 108 128 108 c 0
 139.038085938 108 148 116.961914062 148 128 c 2
 148 384 l 2
142.139648438 142.139648438 m 2
 129.581054688 154.697265625 108 145.70703125 108 128 c 0
 108 122.48046875 110.240234375 117.48046875 113.860351562 113.860351562 c 2
 241.860351562 -14.1396484375 l 2
 254.418945312 -26.697265625 276 -17.70703125 276 0 c 0
 276 5.51953125 273.759765625 10.51953125 270.139648438 14.1396484375 c 2
 142.139648438 142.139648438 l 2
256 20 m 2
 244.961914062 20 236 11.0380859375 236 0 c 0
 236 -11.0380859375 244.961914062 -20 256 -20 c 2
 512 -20 l 2
 523.038085938 -20 532 -11.0380859375 532 0 c 0
 532 11.0380859375 523.038085938 20 512 20 c 2
 256 20 l 2
497.860351562 14.1396484375 m 2
 485.302734375 1.5810546875 494.29296875 -20 512 -20 c 0
 517.51953125 -20 522.51953125 -17.759765625 526.139648438 -14.1396484375 c 2
 654.139648438 113.860351562 l 2
 666.697265625 126.418945312 657.70703125 148 640 148 c 0
 634.48046875 148 629.48046875 145.759765625 625.860351562 142.139648438 c 2
 497.860351562 14.1396484375 l 2
620 128 m 2
 620 116.961914062 628.961914062 108 640 108 c 0
 651.038085938 108 660 116.961914062 660 128 c 2
 660 256 l 2
 660 267.038085938 651.038085938 276 640 276 c 0
 628.961914062 276 620 267.038085938 620 256 c 2
 620 128 l 2
625.860351562 241.860351562 m 2
 638.418945312 229.302734375 660 238.29296875 660 256 c 0
 660 261.51953125 657.759765625 266.51953125 654.139648438 270.139648438 c 2
 526.139648438 398.139648438 l 2
 513.581054688 410.697265625 492 401.70703125 492 384 c 0
 492 378.48046875 494.240234375 373.48046875 497.860351562 369.860351562 c 2
 625.860351562 241.860351562 l 2
512 364 m 2
 523.038085938 364 532 372.961914062 532 384 c 0
 532 395.038085938 523.038085938 404 512 404 c 2
 128 404 l 2
 116.961914062 404 108 395.038085938 108 384 c 0
 108 372.961914062 116.961914062 364 128 364 c 2
 512 364 l 2
EndSplineSet
EndChar

StartChar: seven
Encoding: 55 55 9
Width: 768
Flags: HW
LayerCount: 2
Fore
SplineSet
128 788 m 2
 116.961914062 788 108 779.038085938 108 768 c 0
 108 756.961914062 116.961914062 748 128 748 c 2
 640 748 l 2
 651.038085938 748 660 756.961914062 660 768 c 0
 660 779.038085938 651.038085938 788 640 788 c 2
 128 788 l 2
660 768 m 2
 660 779.038085938 651.038085938 788 640 788 c 0
 628.961914062 788 620 779.038085938 620 768 c 2
 620 512 l 2
 620 500.961914062 628.961914062 492 640 492 c 0
 651.038085938 492 660 500.961914062 660 512 c 2
 660 768 l 2
654.139648438 497.860351562 m 2
 666.697265625 510.418945312 657.70703125 532 640 532 c 0
 634.48046875 532 629.48046875 529.759765625 625.860351562 526.139648438 c 2
 113.860351562 14.1396484375 l 2
 101.302734375 1.5810546875 110.29296875 -20 128 -20 c 0
 133.51953125 -20 138.51953125 -17.759765625 142.139648438 -14.1396484375 c 2
 654.139648438 497.860351562 l 2
EndSplineSet
EndChar

StartChar: eight
Encoding: 56 56 10
Width: 768
Flags: HW
LayerCount: 2
Fore
SplineSet
113.860351562 654.139648438 m 2
 101.302734375 641.581054688 110.29296875 620 128 620 c 0
 133.51953125 620 138.51953125 622.240234375 142.139648438 625.860351562 c 2
 270.139648438 753.860351562 l 2
 282.697265625 766.418945312 273.70703125 788 256 788 c 0
 250.48046875 788 245.48046875 785.759765625 241.860351562 782.139648438 c 2
 113.860351562 654.139648438 l 2
256 788 m 2
 244.961914062 788 236 779.038085938 236 768 c 0
 236 756.961914062 244.961914062 748 256 748 c 2
 512 748 l 2
 523.038085938 748 532 756.961914062 532 768 c 0
 532 779.038085938 523.038085938 788 512 788 c 2
 256 788 l 2
526.139648438 782.139648438 m 2
 513.581054688 794.697265625 492 785.70703125 492 768 c 0
 492 762.48046875 494.240234375 757.48046875 497.860351562 753.860351562 c 2
 625.860351562 625.860351562 l 2
 638.418945312 613.302734375 660 622.29296875 660 640 c 0
 660 645.51953125 657.759765625 650.51953125 654.139648438 654.139648438 c 2
 526.139648438 782.139648438 l 2
654.139648438 625.860351562 m 2
 666.697265625 638.418945312 657.70703125 660 640 660 c 0
 634.48046875 660 629.48046875 657.759765625 625.860351562 654.139648438 c 2
 113.860351562 142.139648438 l 2
 101.302734375 129.581054688 110.29296875 108 128 108 c 0
 133.51953125 108 138.51953125 110.240234375 142.139648438 113.860351562 c 2
 654.139648438 625.860351562 l 2
142.139648438 142.139648438 m 2
 129.581054688 154.697265625 108 145.70703125 108 128 c 0
 108 122.48046875 110.240234375 117.48046875 113.860351562 113.860351562 c 2
 241.860351562 -14.1396484375 l 2
 254.418945312 -26.697265625 276 -17.70703125 276 0 c 0
 276 5.51953125 273.759765625 10.51953125 270.139648438 14.1396484375 c 2
 142.139648438 142.139648438 l 2
256 20 m 2
 244.961914062 20 236 11.0380859375 236 0 c 0
 236 -11.0380859375 244.961914062 -20 256 -20 c 2
 512 -20 l 2
 523.038085938 -20 532 -11.0380859375 532 0 c 0
 532 11.0380859375 523.038085938 20 512 20 c 2
 256 20 l 2
497.860351562 14.1396484375 m 2
 485.302734375 1.5810546875 494.29296875 -20 512 -20 c 0
 517.51953125 -20 522.51953125 -17.759765625 526.139648438 -14.1396484375 c 2
 654.139648438 113.860351562 l 2
 666.697265625 126.418945312 657.70703125 148 640 148 c 0
 634.48046875 148 629.48046875 145.759765625 625.860351562 142.139648438 c 2
 497.860351562 14.1396484375 l 2
625.860351562 113.860351562 m 2
 638.418945312 101.302734375 660 110.29296875 660 128 c 0
 660 133.51953125 657.759765625 138.51953125 654.139648438 142.139648438 c 2
 142.139648438 654.139648438 l 2
 129.581054688 666.697265625 108 657.70703125 108 640 c 0
 108 634.48046875 110.240234375 629.48046875 113.860351562 625.860351562 c 2
 625.860351562 113.860351562 l 2
EndSplineSet
EndChar

StartChar: nine
Encoding: 57 57 11
Width: 768
Flags: HW
LayerCount: 2
Fore
SplineSet
241.860351562 14.1396484375 m 2
 229.302734375 1.5810546875 238.29296875 -20 256 -20 c 0
 261.51953125 -20 266.51953125 -17.759765625 270.139648438 -14.1396484375 c 2
 654.139648438 369.860351562 l 2
 666.697265625 382.418945312 657.70703125 404 640 404 c 0
 634.48046875 404 629.48046875 401.759765625 625.860351562 398.139648438 c 2
 241.860351562 14.1396484375 l 2
620 384 m 2
 620 372.961914062 628.961914062 364 640 364 c 0
 651.038085938 364 660 372.961914062 660 384 c 2
 660 640 l 2
 660 651.038085938 651.038085938 660 640 660 c 0
 628.961914062 660 620 651.038085938 620 640 c 2
 620 384 l 2
625.860351562 625.860351562 m 2
 638.418945312 613.302734375 660 622.29296875 660 640 c 0
 660 645.51953125 657.759765625 650.51953125 654.139648438 654.139648438 c 2
 526.139648438 782.139648438 l 2
 513.581054688 794.697265625 492 785.70703125 492 768 c 0
 492 762.48046875 494.240234375 757.48046875 497.860351562 753.860351562 c 2
 625.860351562 625.860351562 l 2
512 748 m 2
 523.038085938 748 532 756.961914062 532 768 c 0
 532 779.038085938 523.038085938 788 512 788 c 2
 256 788 l 2
 244.961914062 788 236 779.038085938 236 768 c 0
 236 756.961914062 244.961914062 748 256 748 c 2
 512 748 l 2
270.139648438 753.860351562 m 2
 282.697265625 766.418945312 273.70703125 788 256 788 c 0
 250.48046875 788 245.48046875 785.759765625 241.860351562 782.139648438 c 2
 113.860351562 654.139648438 l 2
 101.302734375 641.581054688 110.29296875 620 128 620 c 0
 133.51953125 620 138.51953125 622.240234375 142.139648438 625.860351562 c 2
 270.139648438 753.860351562 l 2
148 640 m 2
 148 651.038085938 139.038085938 660 128 660 c 0
 116.961914062 660 108 651.038085938 108 640 c 2
 108 512 l 2
 108 500.961914062 116.961914062 492 128 492 c 0
 139.038085938 492 148 500.961914062 148 512 c 2
 148 640 l 2
142.139648438 526.139648438 m 2
 129.581054688 538.697265625 108 529.70703125 108 512 c 0
 108 506.48046875 110.240234375 501.48046875 113.860351562 497.860351562 c 2
 241.860351562 369.860351562 l 2
 254.418945312 357.302734375 276 366.29296875 276 384 c 0
 276 389.51953125 273.759765625 394.51953125 270.139648438 398.139648438 c 2
 142.139648438 526.139648438 l 2
256 404 m 2
 244.961914062 404 236 395.038085938 236 384 c 0
 236 372.961914062 244.961914062 364 256 364 c 2
 640 364 l 2
 651.038085938 364 660 372.961914062 660 384 c 0
 660 395.038085938 651.038085938 404 640 404 c 2
 256 404 l 2
EndSplineSet
EndChar

StartChar: degree
Encoding: 176 176 12
Width: 640
Flags: HW
LayerCount: 2
Fore
SplineSet
113.860351562 782.139648438 m 2
 101.302734375 769.581054688 110.29296875 748 128 748 c 0
 133.51953125 748 138.51953125 750.240234375 142.139648438 753.860351562 c 2
 270.139648438 881.860351562 l 2
 282.697265625 894.418945312 273.70703125 916 256 916 c 0
 250.48046875 916 245.48046875 913.759765625 241.860351562 910.139648438 c 2
 113.860351562 782.139648438 l 2
256 916 m 2
 244.961914062 916 236 907.038085938 236 896 c 0
 236 884.961914062 244.961914062 876 256 876 c 2
 384 876 l 2
 395.038085938 876 404 884.961914062 404 896 c 0
 404 907.038085938 395.038085938 916 384 916 c 2
 256 916 l 2
398.139648438 910.139648438 m 2
 385.581054688 922.697265625 364 913.70703125 364 896 c 0
 364 890.48046875 366.240234375 885.48046875 369.860351562 881.860351562 c 2
 497.860351562 753.860351562 l 2
 510.418945312 741.302734375 532 750.29296875 532 768 c 0
 532 773.51953125 529.759765625 778.51953125 526.139648438 782.139648438 c 2
 398.139648438 910.139648438 l 2
532 768 m 2
 532 779.038085938 523.038085938 788 512 788 c 0
 500.961914062 788 492 779.038085938 492 768 c 2
 492 640 l 2
 492 628.961914062 500.961914062 620 512 620 c 0
 523.038085938 620 532 628.961914062 532 640 c 2
 532 768 l 2
526.139648438 625.860351562 m 2
 538.697265625 638.418945312 529.70703125 660 512 660 c 0
 506.48046875 660 501.48046875 657.759765625 497.860351562 654.139648438 c 2
 369.860351562 526.139648438 l 2
 357.302734375 513.581054688 366.29296875 492 384 492 c 0
 389.51953125 492 394.51953125 494.240234375 398.139648438 497.860351562 c 2
 526.139648438 625.860351562 l 2
384 492 m 2
 395.038085938 492 404 500.961914062 404 512 c 0
 404 523.038085938 395.038085938 532 384 532 c 2
 256 532 l 2
 244.961914062 532 236 523.038085938 236 512 c 0
 236 500.961914062 244.961914062 492 256 492 c 2
 384 492 l 2
241.860351562 497.860351562 m 2
 254.418945312 485.302734375 276 494.29296875 276 512 c 0
 276 517.51953125 273.759765625 522.51953125 270.139648438 526.139648438 c 2
 142.139648438 654.139648438 l 2
 129.581054688 666.697265625 108 657.70703125 108 640 c 0
 108 634.48046875 110.240234375 629.48046875 113.860351562 625.860351562 c 2
 241.860351562 497.860351562 l 2
108 640 m 2
 108 628.961914062 116.961914062 620 128 620 c 0
 139.038085938 620 148 628.961914062 148 640 c 2
 148 768 l 2
 148 779.038085938 139.038085938 788 128 788 c 0
 116.961914062 788 108 779.038085938 108 768 c 2
 108 640 l 2
EndSplineSet
EndChar

StartChar: period
Encoding: 46 46 13
Width: 384
Flags: HW
LayerCount: 2
Fore
SplineSet
128 148 m 2
 116.961914062 148 108 139.038085938 108 128 c 0
 108 116.961914062 116.961914062 108 128 108 c 2
 256 108 l 2
 267.038085938 108 276 116.961914062 276 128 c 0
 276 139.038085938 267.038085938 148 256 148 c 2
 128 148 l 2
276 128 m 2
 276 139.038085938 267.038085938 148 256 148 c 0
 244.961914062 148 236 139.038085938 236 128 c 2
 236 0 l 2
 236 -11.0380859375 244.961914062 -20 256 -20 c 0
 267.038085938 -20 276 -11.0380859375 276 0 c 2
 276 128 l 2
256 -20 m 2
 267.038085938 -20 276 -11.0380859375 276 0 c 0
 276 11.0380859375 267.038085938 20 256 20 c 2
 128 20 l 2
 116.961914062 20 108 11.0380859375 108 0 c 0
 108 -11.0380859375 116.961914062 -20 128 -20 c 2
 256 -20 l 2
108 0 m 2
 108 -11.0380859375 116.961914062 -20 128 -20 c 0
 139.038085938 -20 148 -11.0380859375 148 0 c 2
 148 128 l 2
 148 139.038085938 139.038085938 148 128 148 c 0
 116.961914062 148 108 139.038085938 108 128 c 2
 108 0 l 2
EndSplineSet
EndChar

StartChar: plus
Encoding: 43 43 14
Width: 768
Flags: HW
LayerCount: 2
Fore
SplineSet
128 404 m 2
 116.961914062 404 108 395.038085938 108 384 c 0
 108 372.961914062 116.961914062 364 128 364 c 2
 640 364 l 2
 651.038085938 364 660 372.961914062 660 384 c 0
 660 395.038085938 651.038085938 404 640 404 c 2
 128 404 l 2
404 640 m 2
 404 651.038085938 395.038085938 660 384 660 c 0
 372.961914062 660 364 651.038085938 364 640 c 2
 364 128 l 2
 364 116.961914062 372.961914062 108 384 108 c 0
 395.038085938 108 404 116.961914062 404 128 c 2
 404 640 l 2
EndSplineSet
EndChar

StartChar: hyphen
Encoding: 45 45 15
Width: 768
Flags: HW
LayerCount: 2
Fore
SplineSet
128 404 m 2
 116.961914062 404 108 395.038085938 108 384 c 0
 108 372.961914062 116.961914062 364 128 364 c 2
 640 364 l 2
 651.038085938 364 660 372.961914062 660 384 c 0
 660 395.038085938 651.038085938 404 640 404 c 2
 128 404 l 2
EndSplineSet
EndChar

StartChar: slash
Encoding: 47 47 16
Width: 512
Flags: HW
LayerCount: 2
Fore
SplineSet
528.653320312 756.92578125 m 2
 537.459960938 770.13671875 527.931640625 788 512 788 c 0
 505.055664062 788 498.93359375 784.453125 495.346679688 779.07421875 c 2
 -16.6533203125 11.07421875 l 2
 -25.4599609375 -2.13671875 -15.931640625 -20 0 -20 c 0
 6.9443359375 -20 13.06640625 -16.453125 16.6533203125 -11.07421875 c 2
 528.653320312 756.92578125 l 2
EndSplineSet
EndChar

StartChar: comma
Encoding: 44 44 17
Width: 384
Flags: HW
LayerCount: 2
Fore
SplineSet
128 148 m 2
 116.961914062 148 108 139.038085938 108 128 c 0
 108 116.961914062 116.961914062 108 128 108 c 2
 256 108 l 2
 267.038085938 108 276 116.961914062 276 128 c 0
 276 139.038085938 267.038085938 148 256 148 c 2
 128 148 l 2
276 128 m 2
 276 139.038085938 267.038085938 148 256 148 c 0
 244.961914062 148 236 139.038085938 236 128 c 2
 236 0 l 2
 236 -11.0380859375 244.961914062 -20 256 -20 c 0
 267.038085938 -20 276 -11.0380859375 276 0 c 2
 276 128 l 2
256 -20 m 2
 267.038085938 -20 276 -11.0380859375 276 0 c 0
 276 11.0380859375 267.038085938 20 256 20 c 2
 128 20 l 2
 116.961914062 20 108 11.0380859375 108 0 c 0
 108 -11.0380859375 116.961914062 -20 128 -20 c 2
 256 -20 l 2
108 0 m 2
 108 -11.0380859375 116.961914062 -20 128 -20 c 0
 139.038085938 -20 148 -11.0380859375 148 0 c 2
 148 128 l 2
 148 139.038085938 139.038085938 148 128 148 c 0
 116.961914062 148 108 139.038085938 108 128 c 2
 108 0 l 2
270.139648438 -14.1396484375 m 2
 282.697265625 -1.5810546875 273.70703125 20 256 20 c 0
 250.48046875 20 245.48046875 17.759765625 241.860351562 14.1396484375 c 2
 113.860351562 -113.860351562 l 2
 101.302734375 -126.418945312 110.29296875 -148 128 -148 c 0
 133.51953125 -148 138.51953125 -145.759765625 142.139648438 -142.139648438 c 2
 270.139648438 -14.1396484375 l 2
EndSplineSet
EndChar

StartChar: colon
Encoding: 58 58 18
Width: 384
Flags: HW
LayerCount: 2
Fore
SplineSet
128 788 m 2
 116.961914062 788 108 779.038085938 108 768 c 0
 108 756.961914062 116.961914062 748 128 748 c 2
 256 748 l 2
 267.038085938 748 276 756.961914062 276 768 c 0
 276 779.038085938 267.038085938 788 256 788 c 2
 128 788 l 2
276 768 m 2
 276 779.038085938 267.038085938 788 256 788 c 0
 244.961914062 788 236 779.038085938 236 768 c 2
 236 640 l 2
 236 628.961914062 244.961914062 620 256 620 c 0
 267.038085938 620 276 628.961914062 276 640 c 2
 276 768 l 2
256 620 m 2
 267.038085938 620 276 628.961914062 276 640 c 0
 276 651.038085938 267.038085938 660 256 660 c 2
 128 660 l 2
 116.961914062 660 108 651.038085938 108 640 c 0
 108 628.961914062 116.961914062 620 128 620 c 2
 256 620 l 2
108 640 m 2
 108 628.961914062 116.961914062 620 128 620 c 0
 139.038085938 620 148 628.961914062 148 640 c 2
 148 768 l 2
 148 779.038085938 139.038085938 788 128 788 c 0
 116.961914062 788 108 779.038085938 108 768 c 2
 108 640 l 2
128 148 m 2
 116.961914062 148 108 139.038085938 108 128 c 0
 108 116.961914062 116.961914062 108 128 108 c 2
 256 108 l 2
 267.038085938 108 276 116.961914062 276 128 c 0
 276 139.038085938 267.038085938 148 256 148 c 2
 128 148 l 2
276 128 m 2
 276 139.038085938 267.038085938 148 256 148 c 0
 244.961914062 148 236 139.038085938 236 128 c 2
 236 0 l 2
 236 -11.0380859375 244.961914062 -20 256 -20 c 0
 267.038085938 -20 276 -11.0380859375 276 0 c 2
 276 128 l 2
256 -20 m 2
 267.038085938 -20 276 -11.0380859375 276 0 c 0
 276 11.0380859375 267.038085938 20 256 20 c 2
 128 20 l 2
 116.961914062 20 108 11.0380859375 108 0 c 0
 108 -11.0380859375 116.961914062 -20 128 -20 c 2
 256 -20 l 2
108 0 m 2
 108 -11.0380859375 116.961914062 -20 128 -20 c 0
 139.038085938 -20 148 -11.0380859375 148 0 c 2
 148 128 l 2
 148 139.038085938 139.038085938 148 128 148 c 0
 116.961914062 148 108 139.038085938 108 128 c 2
 108 0 l 2
EndSplineSet
EndChar

StartChar: B
Encoding: 66 66 19
Width: 768
Flags: HW
LayerCount: 2
Fore
SplineSet
128 788 m 2
 116.961914062 788 108 779.038085938 108 768 c 0
 108 756.961914062 116.961914062 748 128 748 c 2
 512 748 l 2
 523.038085938 748 532 756.961914062 532 768 c 0
 532 779.038085938 523.038085938 788 512 788 c 2
 128 788 l 2
526.139648438 782.139648438 m 2
 513.581054688 794.697265625 492 785.70703125 492 768 c 0
 492 762.48046875 494.240234375 757.48046875 497.860351562 753.860351562 c 2
 625.860351562 625.860351562 l 2
 638.418945312 613.302734375 660 622.29296875 660 640 c 0
 660 645.51953125 657.759765625 650.51953125 654.139648438 654.139648438 c 2
 526.139648438 782.139648438 l 2
660 640 m 2
 660 651.038085938 651.038085938 660 640 660 c 0
 628.961914062 660 620 651.038085938 620 640 c 2
 620 512 l 2
 620 500.961914062 628.961914062 492 640 492 c 0
 651.038085938 492 660 500.961914062 660 512 c 2
 660 640 l 2
654.139648438 497.860351562 m 2
 666.697265625 510.418945312 657.70703125 532 640 532 c 0
 634.48046875 532 629.48046875 529.759765625 625.860351562 526.139648438 c 2
 497.860351562 398.139648438 l 2
 485.302734375 385.581054688 494.29296875 364 512 364 c 0
 517.51953125 364 522.51953125 366.240234375 526.139648438 369.860351562 c 2
 654.139648438 497.860351562 l 2
526.139648438 398.139648438 m 2
 513.581054688 410.697265625 492 401.70703125 492 384 c 0
 492 378.48046875 494.240234375 373.48046875 497.860351562 369.860351562 c 2
 625.860351562 241.860351562 l 2
 638.418945312 229.302734375 660 238.29296875 660 256 c 0
 660 261.51953125 657.759765625 266.51953125 654.139648438 270.139648438 c 2
 526.139648438 398.139648438 l 2
660 256 m 2
 660 267.038085938 651.038085938 276 640 276 c 0
 628.961914062 276 620 267.038085938 620 256 c 2
 620 128 l 2
 620 116.961914062 628.961914062 108 640 108 c 0
 651.038085938 108 660 116.961914062 660 128 c 2
 660 256 l 2
654.139648438 113.860351562 m 2
 666.697265625 126.418945312 657.70703125 148 640 148 c 0
 634.48046875 148 629.48046875 145.759765625 625.860351562 142.139648438 c 2
 497.860351562 14.1396484375 l 2
 485.302734375 1.5810546875 494.29296875 -20 512 -20 c 0
 517.51953125 -20 522.51953125 -17.759765625 526.139648438 -14.1396484375 c 2
 654.139648438 113.860351562 l 2
512 -20 m 2
 523.038085938 -20 532 -11.0380859375 532 0 c 0
 532 11.0380859375 523.038085938 20 512 20 c 2
 128 20 l 2
 116.961914062 20 108 11.0380859375 108 0 c 0
 108 -11.0380859375 116.961914062 -20 128 -20 c 2
 512 -20 l 2
108 0 m 2
 108 -11.0380859375 116.961914062 -20 128 -20 c 0
 139.038085938 -20 148 -11.0380859375 148 0 c 2
 148 768 l 2
 148 779.038085938 139.038085938 788 128 788 c 0
 116.961914062 788 108 779.038085938 108 768 c 2
 108 0 l 2
128 404 m 2
 116.961914062 404 108 395.038085938 108 384 c 0
 108 372.961914062 116.961914062 364 128 364 c 2
 512 364 l 2
 523.038085938 364 532 372.961914062 532 384 c 0
 532 395.038085938 523.038085938 404 512 404 c 2
 128 404 l 2
EndSplineSet
EndChar

StartChar: uni0412
Encoding: 1042 1042 20
Width: 768
Flags: HW
LayerCount: 2
Fore
SplineSet
128 788 m 2
 116.961914062 788 108 779.038085938 108 768 c 0
 108 756.961914062 116.961914062 748 128 748 c 2
 512 748 l 2
 523.038085938 748 532 756.961914062 532 768 c 0
 532 779.038085938 523.038085938 788 512 788 c 2
 128 788 l 2
526.139648438 782.139648438 m 2
 513.581054688 794.697265625 492 785.70703125 492 768 c 0
 492 762.48046875 494.240234375 757.48046875 497.860351562 753.860351562 c 2
 625.860351562 625.860351562 l 2
 638.418945312 613.302734375 660 622.29296875 660 640 c 0
 660 645.51953125 657.759765625 650.51953125 654.139648438 654.139648438 c 2
 526.139648438 782.139648438 l 2
660 640 m 2
 660 651.038085938 651.038085938 660 640 660 c 0
 628.961914062 660 620 651.038085938 620 640 c 2
 620 512 l 2
 620 500.961914062 628.961914062 492 640 492 c 0
 651.038085938 492 660 500.961914062 660 512 c 2
 660 640 l 2
654.139648438 497.860351562 m 2
 666.697265625 510.418945312 657.70703125 532 640 532 c 0
 634.48046875 532 629.48046875 529.759765625 625.860351562 526.139648438 c 2
 497.860351562 398.139648438 l 2
 485.302734375 385.581054688 494.29296875 364 512 364 c 0
 517.51953125 364 522.51953125 366.240234375 526.139648438 369.860351562 c 2
 654.139648438 497.860351562 l 2
526.139648438 398.139648438 m 2
 513.581054688 410.697265625 492 401.70703125 492 384 c 0
 492 378.48046875 494.240234375 373.48046875 497.860351562 369.860351562 c 2
 625.860351562 241.860351562 l 2
 638.418945312 229.302734375 660 238.29296875 660 256 c 0
 660 261.51953125 657.759765625 266.51953125 654.139648438 270.139648438 c 2
 526.139648438 398.139648438 l 2
660 256 m 2
 660 267.038085938 651.038085938 276 640 276 c 0
 628.961914062 276 620 267.038085938 620 256 c 2
 620 128 l 2
 620 116.961914062 628.961914062 108 640 108 c 0
 651.038085938 108 660 116.961914062 660 128 c 2
 660 256 l 2
654.139648438 113.860351562 m 2
 666.697265625 126.418945312 657.70703125 148 640 148 c 0
 634.48046875 148 629.48046875 145.759765625 625.860351562 142.139648438 c 2
 497.860351562 14.1396484375 l 2
 485.302734375 1.5810546875 494.29296875 -20 512 -20 c 0
 517.51953125 -20 522.51953125 -17.759765625 526.139648438 -14.1396484375 c 2
 654.139648438 113.860351562 l 2
512 -20 m 2
 523.038085938 -20 532 -11.0380859375 532 0 c 0
 532 11.0380859375 523.038085938 20 512 20 c 2
 128 20 l 2
 116.961914062 20 108 11.0380859375 108 0 c 0
 108 -11.0380859375 116.961914062 -20 128 -20 c 2
 512 -20 l 2
108 0 m 2
 108 -11.0380859375 116.961914062 -20 128 -20 c 0
 139.038085938 -20 148 -11.0380859375 148 0 c 2
 148 768 l 2
 148 779.038085938 139.038085938 788 128 788 c 0
 116.961914062 788 108 779.038085938 108 768 c 2
 108 0 l 2
128 404 m 2
 116.961914062 404 108 395.038085938 108 384 c 0
 108 372.961914062 116.961914062 364 128 364 c 2
 512 364 l 2
 523.038085938 364 532 372.961914062 532 384 c 0
 532 395.038085938 523.038085938 404 512 404 c 2
 128 404 l 2
EndSplineSet
EndChar

StartChar: uni0411
Encoding: 1041 1041 21
Width: 768
Flags: HW
LayerCount: 2
Fore
SplineSet
640 748 m 2
 651.038085938 748 660 756.961914062 660 768 c 0
 660 779.038085938 651.038085938 788 640 788 c 2
 128 788 l 2
 116.961914062 788 108 779.038085938 108 768 c 0
 108 756.961914062 116.961914062 748 128 748 c 2
 640 748 l 2
148 768 m 2
 148 779.038085938 139.038085938 788 128 788 c 0
 116.961914062 788 108 779.038085938 108 768 c 2
 108 0 l 2
 108 -11.0380859375 116.961914062 -20 128 -20 c 0
 139.038085938 -20 148 -11.0380859375 148 0 c 2
 148 768 l 2
128 20 m 2
 116.961914062 20 108 11.0380859375 108 0 c 0
 108 -11.0380859375 116.961914062 -20 128 -20 c 2
 512 -20 l 2
 523.038085938 -20 532 -11.0380859375 532 0 c 0
 532 11.0380859375 523.038085938 20 512 20 c 2
 128 20 l 2
497.860351562 14.1396484375 m 2
 485.302734375 1.5810546875 494.29296875 -20 512 -20 c 0
 517.51953125 -20 522.51953125 -17.759765625 526.139648438 -14.1396484375 c 2
 654.139648438 113.860351562 l 2
 666.697265625 126.418945312 657.70703125 148 640 148 c 0
 634.48046875 148 629.48046875 145.759765625 625.860351562 142.139648438 c 2
 497.860351562 14.1396484375 l 2
620 128 m 2
 620 116.961914062 628.961914062 108 640 108 c 0
 651.038085938 108 660 116.961914062 660 128 c 2
 660 256 l 2
 660 267.038085938 651.038085938 276 640 276 c 0
 628.961914062 276 620 267.038085938 620 256 c 2
 620 128 l 2
625.860351562 241.860351562 m 2
 638.418945312 229.302734375 660 238.29296875 660 256 c 0
 660 261.51953125 657.759765625 266.51953125 654.139648438 270.139648438 c 2
 526.139648438 398.139648438 l 2
 513.581054688 410.697265625 492 401.70703125 492 384 c 0
 492 378.48046875 494.240234375 373.48046875 497.860351562 369.860351562 c 2
 625.860351562 241.860351562 l 2
512 364 m 2
 523.038085938 364 532 372.961914062 532 384 c 0
 532 395.038085938 523.038085938 404 512 404 c 2
 128 404 l 2
 116.961914062 404 108 395.038085938 108 384 c 0
 108 372.961914062 116.961914062 364 128 364 c 2
 512 364 l 2
EndSplineSet
EndChar

StartChar: uni0421
Encoding: 1057 1057 22
Width: 768
Flags: HW
LayerCount: 2
Fore
SplineSet
625.860351562 625.860351562 m 2
 638.418945312 613.302734375 660 622.29296875 660 640 c 0
 660 645.51953125 657.759765625 650.51953125 654.139648438 654.139648438 c 2
 526.139648438 782.139648438 l 2
 513.581054688 794.697265625 492 785.70703125 492 768 c 0
 492 762.48046875 494.240234375 757.48046875 497.860351562 753.860351562 c 2
 625.860351562 625.860351562 l 2
512 748 m 2
 523.038085938 748 532 756.961914062 532 768 c 0
 532 779.038085938 523.038085938 788 512 788 c 2
 256 788 l 2
 244.961914062 788 236 779.038085938 236 768 c 0
 236 756.961914062 244.961914062 748 256 748 c 2
 512 748 l 2
270.139648438 753.860351562 m 2
 282.697265625 766.418945312 273.70703125 788 256 788 c 0
 250.48046875 788 245.48046875 785.759765625 241.860351562 782.139648438 c 2
 113.860351562 654.139648438 l 2
 101.302734375 641.581054688 110.29296875 620 128 620 c 0
 133.51953125 620 138.51953125 622.240234375 142.139648438 625.860351562 c 2
 270.139648438 753.860351562 l 2
148 640 m 2
 148 651.038085938 139.038085938 660 128 660 c 0
 116.961914062 660 108 651.038085938 108 640 c 2
 108 128 l 2
 108 116.961914062 116.961914062 108 128 108 c 0
 139.038085938 108 148 116.961914062 148 128 c 2
 148 640 l 2
142.139648438 142.139648438 m 2
 129.581054688 154.697265625 108 145.70703125 108 128 c 0
 108 122.48046875 110.240234375 117.48046875 113.860351562 113.860351562 c 2
 241.860351562 -14.1396484375 l 2
 254.418945312 -26.697265625 276 -17.70703125 276 0 c 0
 276 5.51953125 273.759765625 10.51953125 270.139648438 14.1396484375 c 2
 142.139648438 142.139648438 l 2
256 20 m 2
 244.961914062 20 236 11.0380859375 236 0 c 0
 236 -11.0380859375 244.961914062 -20 256 -20 c 2
 512 -20 l 2
 523.038085938 -20 532 -11.0380859375 532 0 c 0
 532 11.0380859375 523.038085938 20 512 20 c 2
 256 20 l 2
497.860351562 14.1396484375 m 2
 485.302734375 1.5810546875 494.29296875 -20 512 -20 c 0
 517.51953125 -20 522.51953125 -17.759765625 526.139648438 -14.1396484375 c 2
 654.139648438 113.860351562 l 2
 666.697265625 126.418945312 657.70703125 148 640 148 c 0
 634.48046875 148 629.48046875 145.759765625 625.860351562 142.139648438 c 2
 497.860351562 14.1396484375 l 2
EndSplineSet
EndChar

StartChar: C
Encoding: 67 67 23
Width: 768
Flags: HW
LayerCount: 2
Fore
SplineSet
625.860351562 625.860351562 m 2
 638.418945312 613.302734375 660 622.29296875 660 640 c 0
 660 645.51953125 657.759765625 650.51953125 654.139648438 654.139648438 c 2
 526.139648438 782.139648438 l 2
 513.581054688 794.697265625 492 785.70703125 492 768 c 0
 492 762.48046875 494.240234375 757.48046875 497.860351562 753.860351562 c 2
 625.860351562 625.860351562 l 2
512 748 m 2
 523.038085938 748 532 756.961914062 532 768 c 0
 532 779.038085938 523.038085938 788 512 788 c 2
 256 788 l 2
 244.961914062 788 236 779.038085938 236 768 c 0
 236 756.961914062 244.961914062 748 256 748 c 2
 512 748 l 2
270.139648438 753.860351562 m 2
 282.697265625 766.418945312 273.70703125 788 256 788 c 0
 250.48046875 788 245.48046875 785.759765625 241.860351562 782.139648438 c 2
 113.860351562 654.139648438 l 2
 101.302734375 641.581054688 110.29296875 620 128 620 c 0
 133.51953125 620 138.51953125 622.240234375 142.139648438 625.860351562 c 2
 270.139648438 753.860351562 l 2
148 640 m 2
 148 651.038085938 139.038085938 660 128 660 c 0
 116.961914062 660 108 651.038085938 108 640 c 2
 108 128 l 2
 108 116.961914062 116.961914062 108 128 108 c 0
 139.038085938 108 148 116.961914062 148 128 c 2
 148 640 l 2
142.139648438 142.139648438 m 2
 129.581054688 154.697265625 108 145.70703125 108 128 c 0
 108 122.48046875 110.240234375 117.48046875 113.860351562 113.860351562 c 2
 241.860351562 -14.1396484375 l 2
 254.418945312 -26.697265625 276 -17.70703125 276 0 c 0
 276 5.51953125 273.759765625 10.51953125 270.139648438 14.1396484375 c 2
 142.139648438 142.139648438 l 2
256 20 m 2
 244.961914062 20 236 11.0380859375 236 0 c 0
 236 -11.0380859375 244.961914062 -20 256 -20 c 2
 512 -20 l 2
 523.038085938 -20 532 -11.0380859375 532 0 c 0
 532 11.0380859375 523.038085938 20 512 20 c 2
 256 20 l 2
497.860351562 14.1396484375 m 2
 485.302734375 1.5810546875 494.29296875 -20 512 -20 c 0
 517.51953125 -20 522.51953125 -17.759765625 526.139648438 -14.1396484375 c 2
 654.139648438 113.860351562 l 2
 666.697265625 126.418945312 657.70703125 148 640 148 c 0
 634.48046875 148 629.48046875 145.759765625 625.860351562 142.139648438 c 2
 497.860351562 14.1396484375 l 2
EndSplineSet
EndChar

StartChar: D
Encoding: 68 68 24
Width: 896
Flags: HW
LayerCount: 2
Fore
SplineSet
128 788 m 2
 116.961914062 788 108 779.038085938 108 768 c 0
 108 756.961914062 116.961914062 748 128 748 c 2
 640 748 l 2
 651.038085938 748 660 756.961914062 660 768 c 0
 660 779.038085938 651.038085938 788 640 788 c 2
 128 788 l 2
654.139648438 782.139648438 m 2
 641.581054688 794.697265625 620 785.70703125 620 768 c 0
 620 762.48046875 622.240234375 757.48046875 625.860351562 753.860351562 c 2
 753.860351562 625.860351562 l 2
 766.418945312 613.302734375 788 622.29296875 788 640 c 0
 788 645.51953125 785.759765625 650.51953125 782.139648438 654.139648438 c 2
 654.139648438 782.139648438 l 2
788 640 m 2
 788 651.038085938 779.038085938 660 768 660 c 0
 756.961914062 660 748 651.038085938 748 640 c 2
 748 128 l 2
 748 116.961914062 756.961914062 108 768 108 c 0
 779.038085938 108 788 116.961914062 788 128 c 2
 788 640 l 2
782.139648438 113.860351562 m 2
 794.697265625 126.418945312 785.70703125 148 768 148 c 0
 762.48046875 148 757.48046875 145.759765625 753.860351562 142.139648438 c 2
 625.860351562 14.1396484375 l 2
 613.302734375 1.5810546875 622.29296875 -20 640 -20 c 0
 645.51953125 -20 650.51953125 -17.759765625 654.139648438 -14.1396484375 c 2
 782.139648438 113.860351562 l 2
640 -20 m 2
 651.038085938 -20 660 -11.0380859375 660 0 c 0
 660 11.0380859375 651.038085938 20 640 20 c 2
 128 20 l 2
 116.961914062 20 108 11.0380859375 108 0 c 0
 108 -11.0380859375 116.961914062 -20 128 -20 c 2
 640 -20 l 2
276 768 m 2
 276 779.038085938 267.038085938 788 256 788 c 0
 244.961914062 788 236 779.038085938 236 768 c 2
 236 0 l 2
 236 -11.0380859375 244.961914062 -20 256 -20 c 0
 267.038085938 -20 276 -11.0380859375 276 0 c 2
 276 768 l 2
EndSplineSet
EndChar

StartChar: E
Encoding: 69 69 25
Width: 768
Flags: HW
LayerCount: 2
Fore
SplineSet
640 748 m 2
 651.038085938 748 660 756.961914062 660 768 c 0
 660 779.038085938 651.038085938 788 640 788 c 2
 128 788 l 2
 116.961914062 788 108 779.038085938 108 768 c 0
 108 756.961914062 116.961914062 748 128 748 c 2
 640 748 l 2
148 768 m 2
 148 779.038085938 139.038085938 788 128 788 c 0
 116.961914062 788 108 779.038085938 108 768 c 2
 108 0 l 2
 108 -11.0380859375 116.961914062 -20 128 -20 c 0
 139.038085938 -20 148 -11.0380859375 148 0 c 2
 148 768 l 2
128 20 m 2
 116.961914062 20 108 11.0380859375 108 0 c 0
 108 -11.0380859375 116.961914062 -20 128 -20 c 2
 640 -20 l 2
 651.038085938 -20 660 -11.0380859375 660 0 c 0
 660 11.0380859375 651.038085938 20 640 20 c 2
 128 20 l 2
128 404 m 2
 116.961914062 404 108 395.038085938 108 384 c 0
 108 372.961914062 116.961914062 364 128 364 c 2
 512 364 l 2
 523.038085938 364 532 372.961914062 532 384 c 0
 532 395.038085938 523.038085938 404 512 404 c 2
 128 404 l 2
EndSplineSet
EndChar

StartChar: uni0415
Encoding: 1045 1045 26
Width: 768
Flags: HW
LayerCount: 2
Fore
SplineSet
640 748 m 2
 651.038085938 748 660 756.961914062 660 768 c 0
 660 779.038085938 651.038085938 788 640 788 c 2
 128 788 l 2
 116.961914062 788 108 779.038085938 108 768 c 0
 108 756.961914062 116.961914062 748 128 748 c 2
 640 748 l 2
148 768 m 2
 148 779.038085938 139.038085938 788 128 788 c 0
 116.961914062 788 108 779.038085938 108 768 c 2
 108 0 l 2
 108 -11.0380859375 116.961914062 -20 128 -20 c 0
 139.038085938 -20 148 -11.0380859375 148 0 c 2
 148 768 l 2
128 20 m 2
 116.961914062 20 108 11.0380859375 108 0 c 0
 108 -11.0380859375 116.961914062 -20 128 -20 c 2
 640 -20 l 2
 651.038085938 -20 660 -11.0380859375 660 0 c 0
 660 11.0380859375 651.038085938 20 640 20 c 2
 128 20 l 2
128 404 m 2
 116.961914062 404 108 395.038085938 108 384 c 0
 108 372.961914062 116.961914062 364 128 364 c 2
 512 364 l 2
 523.038085938 364 532 372.961914062 532 384 c 0
 532 395.038085938 523.038085938 404 512 404 c 2
 128 404 l 2
EndSplineSet
EndChar

StartChar: uni0413
Encoding: 1043 1043 27
Width: 768
Flags: HW
LayerCount: 2
Fore
SplineSet
640 748 m 2
 651.038085938 748 660 756.961914062 660 768 c 0
 660 779.038085938 651.038085938 788 640 788 c 2
 128 788 l 2
 116.961914062 788 108 779.038085938 108 768 c 0
 108 756.961914062 116.961914062 748 128 748 c 2
 640 748 l 2
148 768 m 2
 148 779.038085938 139.038085938 788 128 788 c 0
 116.961914062 788 108 779.038085938 108 768 c 2
 108 0 l 2
 108 -11.0380859375 116.961914062 -20 128 -20 c 0
 139.038085938 -20 148 -11.0380859375 148 0 c 2
 148 768 l 2
EndSplineSet
EndChar

StartChar: uni0414
Encoding: 1044 1044 28
Width: 768
Flags: HW
LayerCount: 2
Fore
SplineSet
-20 -128 m 2
 -20 -139.038085938 -11.0380859375 -148 0 -148 c 0
 11.0380859375 -148 20 -139.038085938 20 -128 c 2
 20 0 l 2
 20 11.0380859375 11.0380859375 20 0 20 c 0
 -11.0380859375 20 -20 11.0380859375 -20 0 c 2
 -20 -128 l 2
0 20 m 2
 -11.0380859375 20 -20 11.0380859375 -20 0 c 0
 -20 -11.0380859375 -11.0380859375 -20 0 -20 c 2
 128 -20 l 2
 139.038085938 -20 148 -11.0380859375 148 0 c 0
 148 11.0380859375 139.038085938 20 128 20 c 2
 0 20 l 2
108 0 m 2
 108 -11.0380859375 116.961914062 -20 128 -20 c 0
 139.038085938 -20 148 -11.0380859375 148 0 c 2
 148 512 l 2
 148 523.038085938 139.038085938 532 128 532 c 0
 116.961914062 532 108 523.038085938 108 512 c 2
 108 0 l 2
113.860351562 526.139648438 m 2
 101.302734375 513.581054688 110.29296875 492 128 492 c 0
 133.51953125 492 138.51953125 494.240234375 142.139648438 497.860351562 c 2
 398.139648438 753.860351562 l 2
 410.697265625 766.418945312 401.70703125 788 384 788 c 0
 378.48046875 788 373.48046875 785.759765625 369.860351562 782.139648438 c 2
 113.860351562 526.139648438 l 2
384 788 m 2
 372.961914062 788 364 779.038085938 364 768 c 0
 364 756.961914062 372.961914062 748 384 748 c 2
 640 748 l 2
 651.038085938 748 660 756.961914062 660 768 c 0
 660 779.038085938 651.038085938 788 640 788 c 2
 384 788 l 2
660 768 m 2
 660 779.038085938 651.038085938 788 640 788 c 0
 628.961914062 788 620 779.038085938 620 768 c 2
 620 0 l 2
 620 -11.0380859375 628.961914062 -20 640 -20 c 0
 651.038085938 -20 660 -11.0380859375 660 0 c 2
 660 768 l 2
640 20 m 2
 628.961914062 20 620 11.0380859375 620 0 c 0
 620 -11.0380859375 628.961914062 -20 640 -20 c 2
 768 -20 l 2
 779.038085938 -20 788 -11.0380859375 788 0 c 0
 788 11.0380859375 779.038085938 20 768 20 c 2
 640 20 l 2
788 0 m 2
 788 11.0380859375 779.038085938 20 768 20 c 0
 756.961914062 20 748 11.0380859375 748 0 c 2
 748 -128 l 2
 748 -139.038085938 756.961914062 -148 768 -148 c 0
 779.038085938 -148 788 -139.038085938 788 -128 c 2
 788 0 l 2
128 20 m 2
 116.961914062 20 108 11.0380859375 108 0 c 0
 108 -11.0380859375 116.961914062 -20 128 -20 c 2
 640 -20 l 2
 651.038085938 -20 660 -11.0380859375 660 0 c 0
 660 11.0380859375 651.038085938 20 640 20 c 2
 128 20 l 2
EndSplineSet
EndChar

StartChar: uni0416
Encoding: 1046 1046 29
Width: 1024
Flags: H
LayerCount: 2
Fore
SplineSet
148 768 m 2
 148 779.038085938 139.038085938 788 128 788 c 0
 116.961914062 788 108 779.038085938 108 768 c 2
 108 640 l 2
 108 628.961914062 116.961914062 620 128 620 c 0
 139.038085938 620 148 628.961914062 148 640 c 2
 148 768 l 2
142.139648438 654.139648438 m 2
 129.581054688 666.697265625 108 657.70703125 108 640 c 0
 108 634.48046875 110.240234375 629.48046875 113.860351562 625.860351562 c 2
 369.860351562 369.860351562 l 2
 382.418945312 357.302734375 404 366.29296875 404 384 c 0
 404 389.51953125 401.759765625 394.51953125 398.139648438 398.139648438 c 2
 142.139648438 654.139648438 l 2
398.139648438 369.860351562 m 2
 410.697265625 382.418945312 401.70703125 404 384 404 c 0
 378.48046875 404 373.48046875 401.759765625 369.860351562 398.139648438 c 2
 113.860351562 142.139648438 l 2
 101.302734375 129.581054688 110.29296875 108 128 108 c 0
 133.51953125 108 138.51953125 110.240234375 142.139648438 113.860351562 c 2
 398.139648438 369.860351562 l 2
148 128 m 2
 148 139.038085938 139.038085938 148 128 148 c 0
 116.961914062 148 108 139.038085938 108 128 c 2
 108 0 l 2
 108 -11.0380859375 116.961914062 -20 128 -20 c 0
 139.038085938 -20 148 -11.0380859375 148 0 c 2
 148 128 l 2
916 768 m 2
 916 779.038085938 907.038085938 788 896 788 c 0
 884.961914062 788 876 779.038085938 876 768 c 2
 876 640 l 2
 876 628.961914062 884.961914062 620 896 620 c 0
 907.038085938 620 916 628.961914062 916 640 c 2
 916 768 l 2
910.139648438 625.860351562 m 2
 922.697265625 638.418945312 913.70703125 660 896 660 c 0
 890.48046875 660 885.48046875 657.759765625 881.860351562 654.139648438 c 2
 625.860351562 398.139648438 l 2
 613.302734375 385.581054688 622.29296875 364 640 364 c 0
 645.51953125 364 650.51953125 366.240234375 654.139648438 369.860351562 c 2
 910.139648438 625.860351562 l 2
654.139648438 398.139648438 m 2
 641.581054688 410.697265625 620 401.70703125 620 384 c 0
 620 378.48046875 622.240234375 373.48046875 625.860351562 369.860351562 c 2
 881.860351562 113.860351562 l 2
 894.418945312 101.302734375 916 110.29296875 916 128 c 0
 916 133.51953125 913.759765625 138.51953125 910.139648438 142.139648438 c 2
 654.139648438 398.139648438 l 2
916 128 m 2
 916 139.038085938 907.038085938 148 896 148 c 0
 884.961914062 148 876 139.038085938 876 128 c 2
 876 0 l 2
 876 -11.0380859375 884.961914062 -20 896 -20 c 0
 907.038085938 -20 916 -11.0380859375 916 0 c 2
 916 128 l 2
384 404 m 2
 372.961914062 404 364 395.038085938 364 384 c 0
 364 372.961914062 372.961914062 364 384 364 c 2
 640 364 l 2
 651.038085938 364 660 372.961914062 660 384 c 0
 660 395.038085938 651.038085938 404 640 404 c 2
 384 404 l 2
532 768 m 2
 532 779.038085938 523.038085938 788 512 788 c 0
 500.961914062 788 492 779.038085938 492 768 c 2
 492 0 l 2
 492 -11.0380859375 500.961914062 -20 512 -20 c 0
 523.038085938 -20 532 -11.0380859375 532 0 c 2
 532 768 l 2
EndSplineSet
EndChar

StartChar: uni0417
Encoding: 1047 1047 30
Width: 768
Flags: HW
LayerCount: 2
Fore
SplineSet
113.860351562 654.139648438 m 2
 101.302734375 641.581054688 110.29296875 620 128 620 c 0
 133.51953125 620 138.51953125 622.240234375 142.139648438 625.860351562 c 2
 270.139648438 753.860351562 l 2
 282.697265625 766.418945312 273.70703125 788 256 788 c 0
 250.48046875 788 245.48046875 785.759765625 241.860351562 782.139648438 c 2
 113.860351562 654.139648438 l 2
256 788 m 2
 244.961914062 788 236 779.038085938 236 768 c 0
 236 756.961914062 244.961914062 748 256 748 c 2
 512 748 l 2
 523.038085938 748 532 756.961914062 532 768 c 0
 532 779.038085938 523.038085938 788 512 788 c 2
 256 788 l 2
526.139648438 782.139648438 m 2
 513.581054688 794.697265625 492 785.70703125 492 768 c 0
 492 762.48046875 494.240234375 757.48046875 497.860351562 753.860351562 c 2
 625.860351562 625.860351562 l 2
 638.418945312 613.302734375 660 622.29296875 660 640 c 0
 660 645.51953125 657.759765625 650.51953125 654.139648438 654.139648438 c 2
 526.139648438 782.139648438 l 2
660 640 m 2
 660 651.038085938 651.038085938 660 640 660 c 0
 628.961914062 660 620 651.038085938 620 640 c 2
 620 512 l 2
 620 500.961914062 628.961914062 492 640 492 c 0
 651.038085938 492 660 500.961914062 660 512 c 2
 660 640 l 2
654.139648438 497.860351562 m 2
 666.697265625 510.418945312 657.70703125 532 640 532 c 0
 634.48046875 532 629.48046875 529.759765625 625.860351562 526.139648438 c 2
 497.860351562 398.139648438 l 2
 485.302734375 385.581054688 494.29296875 364 512 364 c 0
 517.51953125 364 522.51953125 366.240234375 526.139648438 369.860351562 c 2
 654.139648438 497.860351562 l 2
512 364 m 2
 523.038085938 364 532 372.961914062 532 384 c 0
 532 395.038085938 523.038085938 404 512 404 c 2
 384 404 l 2
 372.961914062 404 364 395.038085938 364 384 c 0
 364 372.961914062 372.961914062 364 384 364 c 2
 512 364 l 2
384 404 m 2
 372.961914062 404 364 395.038085938 364 384 c 0
 364 372.961914062 372.961914062 364 384 364 c 2
 512 364 l 2
 523.038085938 364 532 372.961914062 532 384 c 0
 532 395.038085938 523.038085938 404 512 404 c 2
 384 404 l 2
526.139648438 398.139648438 m 2
 513.581054688 410.697265625 492 401.70703125 492 384 c 0
 492 378.48046875 494.240234375 373.48046875 497.860351562 369.860351562 c 2
 625.860351562 241.860351562 l 2
 638.418945312 229.302734375 660 238.29296875 660 256 c 0
 660 261.51953125 657.759765625 266.51953125 654.139648438 270.139648438 c 2
 526.139648438 398.139648438 l 2
660 256 m 2
 660 267.038085938 651.038085938 276 640 276 c 0
 628.961914062 276 620 267.038085938 620 256 c 2
 620 128 l 2
 620 116.961914062 628.961914062 108 640 108 c 0
 651.038085938 108 660 116.961914062 660 128 c 2
 660 256 l 2
654.139648438 113.860351562 m 2
 666.697265625 126.418945312 657.70703125 148 640 148 c 0
 634.48046875 148 629.48046875 145.759765625 625.860351562 142.139648438 c 2
 497.860351562 14.1396484375 l 2
 485.302734375 1.5810546875 494.29296875 -20 512 -20 c 0
 517.51953125 -20 522.51953125 -17.759765625 526.139648438 -14.1396484375 c 2
 654.139648438 113.860351562 l 2
512 -20 m 2
 523.038085938 -20 532 -11.0380859375 532 0 c 0
 532 11.0380859375 523.038085938 20 512 20 c 2
 256 20 l 2
 244.961914062 20 236 11.0380859375 236 0 c 0
 236 -11.0380859375 244.961914062 -20 256 -20 c 2
 512 -20 l 2
241.860351562 -14.1396484375 m 2
 254.418945312 -26.697265625 276 -17.70703125 276 0 c 0
 276 5.51953125 273.759765625 10.51953125 270.139648438 14.1396484375 c 2
 142.139648438 142.139648438 l 2
 129.581054688 154.697265625 108 145.70703125 108 128 c 0
 108 122.48046875 110.240234375 117.48046875 113.860351562 113.860351562 c 2
 241.860351562 -14.1396484375 l 2
EndSplineSet
EndChar

StartChar: uni0418
Encoding: 1048 1048 31
Width: 768
Flags: HW
LayerCount: 2
Fore
SplineSet
148 768 m 2
 148 779.038085938 139.038085938 788 128 788 c 0
 116.961914062 788 108 779.038085938 108 768 c 2
 108 0 l 2
 108 -11.0380859375 116.961914062 -20 128 -20 c 0
 139.038085938 -20 148 -11.0380859375 148 0 c 2
 148 768 l 2
660 768 m 2
 660 779.038085938 651.038085938 788 640 788 c 0
 628.961914062 788 620 779.038085938 620 768 c 2
 620 0 l 2
 620 -11.0380859375 628.961914062 -20 640 -20 c 0
 651.038085938 -20 660 -11.0380859375 660 0 c 2
 660 768 l 2
113.860351562 142.139648438 m 2
 101.302734375 129.581054688 110.29296875 108 128 108 c 0
 133.51953125 108 138.51953125 110.240234375 142.139648438 113.860351562 c 2
 654.139648438 625.860351562 l 2
 666.697265625 638.418945312 657.70703125 660 640 660 c 0
 634.48046875 660 629.48046875 657.759765625 625.860351562 654.139648438 c 2
 113.860351562 142.139648438 l 2
EndSplineSet
EndChar

StartChar: uni0419
Encoding: 1049 1049 32
Width: 768
Flags: HW
LayerCount: 2
Fore
SplineSet
148 768 m 2
 148 779.038085938 139.038085938 788 128 788 c 0
 116.961914062 788 108 779.038085938 108 768 c 2
 108 0 l 2
 108 -11.0380859375 116.961914062 -20 128 -20 c 0
 139.038085938 -20 148 -11.0380859375 148 0 c 2
 148 768 l 2
660 768 m 2
 660 779.038085938 651.038085938 788 640 788 c 0
 628.961914062 788 620 779.038085938 620 768 c 2
 620 0 l 2
 620 -11.0380859375 628.961914062 -20 640 -20 c 0
 651.038085938 -20 660 -11.0380859375 660 0 c 2
 660 768 l 2
113.860351562 142.139648438 m 2
 101.302734375 129.581054688 110.29296875 108 128 108 c 0
 133.51953125 108 138.51953125 110.240234375 142.139648438 113.860351562 c 2
 654.139648438 625.860351562 l 2
 666.697265625 638.418945312 657.70703125 660 640 660 c 0
 634.48046875 660 629.48046875 657.759765625 625.860351562 654.139648438 c 2
 113.860351562 142.139648438 l 2
256 916 m 2
 244.961914062 916 236 907.038085938 236 896 c 0
 236 884.961914062 244.961914062 876 256 876 c 2
 512 876 l 2
 523.038085938 876 532 884.961914062 532 896 c 0
 532 907.038085938 523.038085938 916 512 916 c 2
 256 916 l 2
EndSplineSet
EndChar

StartChar: uni041A
Encoding: 1050 1050 33
Width: 768
Flags: HW
LayerCount: 2
Fore
SplineSet
148 768 m 2
 148 779.038085938 139.038085938 788 128 788 c 0
 116.961914062 788 108 779.038085938 108 768 c 2
 108 0 l 2
 108 -11.0380859375 116.961914062 -20 128 -20 c 0
 139.038085938 -20 148 -11.0380859375 148 0 c 2
 148 768 l 2
128 404 m 2
 116.961914062 404 108 395.038085938 108 384 c 0
 108 372.961914062 116.961914062 364 128 364 c 2
 256 364 l 2
 267.038085938 364 276 372.961914062 276 384 c 0
 276 395.038085938 267.038085938 404 256 404 c 2
 128 404 l 2
241.860351562 398.139648438 m 2
 229.302734375 385.581054688 238.29296875 364 256 364 c 0
 261.51953125 364 266.51953125 366.240234375 270.139648438 369.860351562 c 2
 654.139648438 753.860351562 l 2
 666.697265625 766.418945312 657.70703125 788 640 788 c 0
 634.48046875 788 629.48046875 785.759765625 625.860351562 782.139648438 c 2
 241.860351562 398.139648438 l 2
270.139648438 398.139648438 m 2
 257.581054688 410.697265625 236 401.70703125 236 384 c 0
 236 378.48046875 238.240234375 373.48046875 241.860351562 369.860351562 c 2
 625.860351562 -14.1396484375 l 2
 638.418945312 -26.697265625 660 -17.70703125 660 0 c 0
 660 5.51953125 657.759765625 10.51953125 654.139648438 14.1396484375 c 2
 270.139648438 398.139648438 l 2
EndSplineSet
EndChar

StartChar: K
Encoding: 75 75 34
Width: 768
Flags: HW
LayerCount: 2
Fore
SplineSet
148 768 m 2
 148 779.038085938 139.038085938 788 128 788 c 0
 116.961914062 788 108 779.038085938 108 768 c 2
 108 0 l 2
 108 -11.0380859375 116.961914062 -20 128 -20 c 0
 139.038085938 -20 148 -11.0380859375 148 0 c 2
 148 768 l 2
128 404 m 2
 116.961914062 404 108 395.038085938 108 384 c 0
 108 372.961914062 116.961914062 364 128 364 c 2
 256 364 l 2
 267.038085938 364 276 372.961914062 276 384 c 0
 276 395.038085938 267.038085938 404 256 404 c 2
 128 404 l 2
241.860351562 398.139648438 m 2
 229.302734375 385.581054688 238.29296875 364 256 364 c 0
 261.51953125 364 266.51953125 366.240234375 270.139648438 369.860351562 c 2
 654.139648438 753.860351562 l 2
 666.697265625 766.418945312 657.70703125 788 640 788 c 0
 634.48046875 788 629.48046875 785.759765625 625.860351562 782.139648438 c 2
 241.860351562 398.139648438 l 2
270.139648438 398.139648438 m 2
 257.581054688 410.697265625 236 401.70703125 236 384 c 0
 236 378.48046875 238.240234375 373.48046875 241.860351562 369.860351562 c 2
 625.860351562 -14.1396484375 l 2
 638.418945312 -26.697265625 660 -17.70703125 660 0 c 0
 660 5.51953125 657.759765625 10.51953125 654.139648438 14.1396484375 c 2
 270.139648438 398.139648438 l 2
EndSplineSet
EndChar

StartChar: uni041B
Encoding: 1051 1051 35
Width: 768
Flags: HW
LayerCount: 2
Fore
SplineSet
108 0 m 2
 108 -11.0380859375 116.961914062 -20 128 -20 c 0
 139.038085938 -20 148 -11.0380859375 148 0 c 2
 148 512 l 2
 148 523.038085938 139.038085938 532 128 532 c 0
 116.961914062 532 108 523.038085938 108 512 c 2
 108 0 l 2
113.860351562 526.139648438 m 2
 101.302734375 513.581054688 110.29296875 492 128 492 c 0
 133.51953125 492 138.51953125 494.240234375 142.139648438 497.860351562 c 2
 398.139648438 753.860351562 l 2
 410.697265625 766.418945312 401.70703125 788 384 788 c 0
 378.48046875 788 373.48046875 785.759765625 369.860351562 782.139648438 c 2
 113.860351562 526.139648438 l 2
384 788 m 2
 372.961914062 788 364 779.038085938 364 768 c 0
 364 756.961914062 372.961914062 748 384 748 c 2
 640 748 l 2
 651.038085938 748 660 756.961914062 660 768 c 0
 660 779.038085938 651.038085938 788 640 788 c 2
 384 788 l 2
660 768 m 2
 660 779.038085938 651.038085938 788 640 788 c 0
 628.961914062 788 620 779.038085938 620 768 c 2
 620 0 l 2
 620 -11.0380859375 628.961914062 -20 640 -20 c 0
 651.038085938 -20 660 -11.0380859375 660 0 c 2
 660 768 l 2
EndSplineSet
EndChar

StartChar: uni041C
Encoding: 1052 1052 36
Width: 1024
Flags: H
LayerCount: 2
Fore
SplineSet
108 0 m 2
 108 -11.0380859375 116.961914062 -20 128 -20 c 0
 139.038085938 -20 148 -11.0380859375 148 0 c 2
 148 768 l 2
 148 779.038085938 139.038085938 788 128 788 c 0
 116.961914062 788 108 779.038085938 108 768 c 2
 108 0 l 2
142.139648438 782.139648438 m 2
 129.581054688 794.697265625 108 785.70703125 108 768 c 0
 108 762.48046875 110.240234375 757.48046875 113.860351562 753.860351562 c 2
 497.860351562 369.860351562 l 2
 510.418945312 357.302734375 532 366.29296875 532 384 c 0
 532 389.51953125 529.759765625 394.51953125 526.139648438 398.139648438 c 2
 142.139648438 782.139648438 l 2
497.860351562 398.139648438 m 2
 485.302734375 385.581054688 494.29296875 364 512 364 c 0
 517.51953125 364 522.51953125 366.240234375 526.139648438 369.860351562 c 2
 910.139648438 753.860351562 l 2
 922.697265625 766.418945312 913.70703125 788 896 788 c 0
 890.48046875 788 885.48046875 785.759765625 881.860351562 782.139648438 c 2
 497.860351562 398.139648438 l 2
916 768 m 2
 916 779.038085938 907.038085938 788 896 788 c 0
 884.961914062 788 876 779.038085938 876 768 c 2
 876 0 l 2
 876 -11.0380859375 884.961914062 -20 896 -20 c 0
 907.038085938 -20 916 -11.0380859375 916 0 c 2
 916 768 l 2
EndSplineSet
EndChar

StartChar: uni041D
Encoding: 1053 1053 37
Width: 768
Flags: HW
LayerCount: 2
Fore
SplineSet
148 768 m 2
 148 779.038085938 139.038085938 788 128 788 c 0
 116.961914062 788 108 779.038085938 108 768 c 2
 108 0 l 2
 108 -11.0380859375 116.961914062 -20 128 -20 c 0
 139.038085938 -20 148 -11.0380859375 148 0 c 2
 148 768 l 2
660 768 m 2
 660 779.038085938 651.038085938 788 640 788 c 0
 628.961914062 788 620 779.038085938 620 768 c 2
 620 0 l 2
 620 -11.0380859375 628.961914062 -20 640 -20 c 0
 651.038085938 -20 660 -11.0380859375 660 0 c 2
 660 768 l 2
128 404 m 2
 116.961914062 404 108 395.038085938 108 384 c 0
 108 372.961914062 116.961914062 364 128 364 c 2
 640 364 l 2
 651.038085938 364 660 372.961914062 660 384 c 0
 660 395.038085938 651.038085938 404 640 404 c 2
 128 404 l 2
EndSplineSet
EndChar

StartChar: uni041E
Encoding: 1054 1054 38
Width: 768
Flags: HW
LayerCount: 2
Fore
SplineSet
148 640 m 2
 148 651.038085938 139.038085938 660 128 660 c 0
 116.961914062 660 108 651.038085938 108 640 c 2
 108 128 l 2
 108 116.961914062 116.961914062 108 128 108 c 0
 139.038085938 108 148 116.961914062 148 128 c 2
 148 640 l 2
142.139648438 142.139648438 m 2
 129.581054688 154.697265625 108 145.70703125 108 128 c 0
 108 122.48046875 110.240234375 117.48046875 113.860351562 113.860351562 c 2
 241.860351562 -14.1396484375 l 2
 254.418945312 -26.697265625 276 -17.70703125 276 0 c 0
 276 5.51953125 273.759765625 10.51953125 270.139648438 14.1396484375 c 2
 142.139648438 142.139648438 l 2
256 20 m 2
 244.961914062 20 236 11.0380859375 236 0 c 0
 236 -11.0380859375 244.961914062 -20 256 -20 c 2
 512 -20 l 2
 523.038085938 -20 532 -11.0380859375 532 0 c 0
 532 11.0380859375 523.038085938 20 512 20 c 2
 256 20 l 2
497.860351562 14.1396484375 m 2
 485.302734375 1.5810546875 494.29296875 -20 512 -20 c 0
 517.51953125 -20 522.51953125 -17.759765625 526.139648438 -14.1396484375 c 2
 654.139648438 113.860351562 l 2
 666.697265625 126.418945312 657.70703125 148 640 148 c 0
 634.48046875 148 629.48046875 145.759765625 625.860351562 142.139648438 c 2
 497.860351562 14.1396484375 l 2
620 128 m 2
 620 116.961914062 628.961914062 108 640 108 c 0
 651.038085938 108 660 116.961914062 660 128 c 2
 660 640 l 2
 660 651.038085938 651.038085938 660 640 660 c 0
 628.961914062 660 620 651.038085938 620 640 c 2
 620 128 l 2
625.860351562 625.860351562 m 2
 638.418945312 613.302734375 660 622.29296875 660 640 c 0
 660 645.51953125 657.759765625 650.51953125 654.139648438 654.139648438 c 2
 526.139648438 782.139648438 l 2
 513.581054688 794.697265625 492 785.70703125 492 768 c 0
 492 762.48046875 494.240234375 757.48046875 497.860351562 753.860351562 c 2
 625.860351562 625.860351562 l 2
512 748 m 2
 523.038085938 748 532 756.961914062 532 768 c 0
 532 779.038085938 523.038085938 788 512 788 c 2
 256 788 l 2
 244.961914062 788 236 779.038085938 236 768 c 0
 236 756.961914062 244.961914062 748 256 748 c 2
 512 748 l 2
270.139648438 753.860351562 m 2
 282.697265625 766.418945312 273.70703125 788 256 788 c 0
 250.48046875 788 245.48046875 785.759765625 241.860351562 782.139648438 c 2
 113.860351562 654.139648438 l 2
 101.302734375 641.581054688 110.29296875 620 128 620 c 0
 133.51953125 620 138.51953125 622.240234375 142.139648438 625.860351562 c 2
 270.139648438 753.860351562 l 2
EndSplineSet
EndChar

StartChar: uni041F
Encoding: 1055 1055 39
Width: 768
Flags: HW
LayerCount: 2
Fore
SplineSet
108 0 m 2
 108 -11.0380859375 116.961914062 -20 128 -20 c 0
 139.038085938 -20 148 -11.0380859375 148 0 c 2
 148 768 l 2
 148 779.038085938 139.038085938 788 128 788 c 0
 116.961914062 788 108 779.038085938 108 768 c 2
 108 0 l 2
128 788 m 2
 116.961914062 788 108 779.038085938 108 768 c 0
 108 756.961914062 116.961914062 748 128 748 c 2
 640 748 l 2
 651.038085938 748 660 756.961914062 660 768 c 0
 660 779.038085938 651.038085938 788 640 788 c 2
 128 788 l 2
660 768 m 2
 660 779.038085938 651.038085938 788 640 788 c 0
 628.961914062 788 620 779.038085938 620 768 c 2
 620 0 l 2
 620 -11.0380859375 628.961914062 -20 640 -20 c 0
 651.038085938 -20 660 -11.0380859375 660 0 c 2
 660 768 l 2
EndSplineSet
EndChar

StartChar: uni0420
Encoding: 1056 1056 40
Width: 768
Flags: HW
LayerCount: 2
Fore
SplineSet
108 0 m 2
 108 -11.0380859375 116.961914062 -20 128 -20 c 0
 139.038085938 -20 148 -11.0380859375 148 0 c 2
 148 768 l 2
 148 779.038085938 139.038085938 788 128 788 c 0
 116.961914062 788 108 779.038085938 108 768 c 2
 108 0 l 2
128 788 m 2
 116.961914062 788 108 779.038085938 108 768 c 0
 108 756.961914062 116.961914062 748 128 748 c 2
 512 748 l 2
 523.038085938 748 532 756.961914062 532 768 c 0
 532 779.038085938 523.038085938 788 512 788 c 2
 128 788 l 2
526.139648438 782.139648438 m 2
 513.581054688 794.697265625 492 785.70703125 492 768 c 0
 492 762.48046875 494.240234375 757.48046875 497.860351562 753.860351562 c 2
 625.860351562 625.860351562 l 2
 638.418945312 613.302734375 660 622.29296875 660 640 c 0
 660 645.51953125 657.759765625 650.51953125 654.139648438 654.139648438 c 2
 526.139648438 782.139648438 l 2
660 640 m 2
 660 651.038085938 651.038085938 660 640 660 c 0
 628.961914062 660 620 651.038085938 620 640 c 2
 620 512 l 2
 620 500.961914062 628.961914062 492 640 492 c 0
 651.038085938 492 660 500.961914062 660 512 c 2
 660 640 l 2
654.139648438 497.860351562 m 2
 666.697265625 510.418945312 657.70703125 532 640 532 c 0
 634.48046875 532 629.48046875 529.759765625 625.860351562 526.139648438 c 2
 497.860351562 398.139648438 l 2
 485.302734375 385.581054688 494.29296875 364 512 364 c 0
 517.51953125 364 522.51953125 366.240234375 526.139648438 369.860351562 c 2
 654.139648438 497.860351562 l 2
512 364 m 2
 523.038085938 364 532 372.961914062 532 384 c 0
 532 395.038085938 523.038085938 404 512 404 c 2
 128 404 l 2
 116.961914062 404 108 395.038085938 108 384 c 0
 108 372.961914062 116.961914062 364 128 364 c 2
 512 364 l 2
EndSplineSet
EndChar

StartChar: O
Encoding: 79 79 41
Width: 768
Flags: HW
LayerCount: 2
Fore
SplineSet
148 640 m 2
 148 651.038085938 139.038085938 660 128 660 c 0
 116.961914062 660 108 651.038085938 108 640 c 2
 108 128 l 2
 108 116.961914062 116.961914062 108 128 108 c 0
 139.038085938 108 148 116.961914062 148 128 c 2
 148 640 l 2
142.139648438 142.139648438 m 2
 129.581054688 154.697265625 108 145.70703125 108 128 c 0
 108 122.48046875 110.240234375 117.48046875 113.860351562 113.860351562 c 2
 241.860351562 -14.1396484375 l 2
 254.418945312 -26.697265625 276 -17.70703125 276 0 c 0
 276 5.51953125 273.759765625 10.51953125 270.139648438 14.1396484375 c 2
 142.139648438 142.139648438 l 2
256 20 m 2
 244.961914062 20 236 11.0380859375 236 0 c 0
 236 -11.0380859375 244.961914062 -20 256 -20 c 2
 512 -20 l 2
 523.038085938 -20 532 -11.0380859375 532 0 c 0
 532 11.0380859375 523.038085938 20 512 20 c 2
 256 20 l 2
497.860351562 14.1396484375 m 2
 485.302734375 1.5810546875 494.29296875 -20 512 -20 c 0
 517.51953125 -20 522.51953125 -17.759765625 526.139648438 -14.1396484375 c 2
 654.139648438 113.860351562 l 2
 666.697265625 126.418945312 657.70703125 148 640 148 c 0
 634.48046875 148 629.48046875 145.759765625 625.860351562 142.139648438 c 2
 497.860351562 14.1396484375 l 2
620 128 m 2
 620 116.961914062 628.961914062 108 640 108 c 0
 651.038085938 108 660 116.961914062 660 128 c 2
 660 640 l 2
 660 651.038085938 651.038085938 660 640 660 c 0
 628.961914062 660 620 651.038085938 620 640 c 2
 620 128 l 2
625.860351562 625.860351562 m 2
 638.418945312 613.302734375 660 622.29296875 660 640 c 0
 660 645.51953125 657.759765625 650.51953125 654.139648438 654.139648438 c 2
 526.139648438 782.139648438 l 2
 513.581054688 794.697265625 492 785.70703125 492 768 c 0
 492 762.48046875 494.240234375 757.48046875 497.860351562 753.860351562 c 2
 625.860351562 625.860351562 l 2
512 748 m 2
 523.038085938 748 532 756.961914062 532 768 c 0
 532 779.038085938 523.038085938 788 512 788 c 2
 256 788 l 2
 244.961914062 788 236 779.038085938 236 768 c 0
 236 756.961914062 244.961914062 748 256 748 c 2
 512 748 l 2
270.139648438 753.860351562 m 2
 282.697265625 766.418945312 273.70703125 788 256 788 c 0
 250.48046875 788 245.48046875 785.759765625 241.860351562 782.139648438 c 2
 113.860351562 654.139648438 l 2
 101.302734375 641.581054688 110.29296875 620 128 620 c 0
 133.51953125 620 138.51953125 622.240234375 142.139648438 625.860351562 c 2
 270.139648438 753.860351562 l 2
EndSplineSet
EndChar

StartChar: M
Encoding: 77 77 42
Width: 1024
Flags: H
LayerCount: 2
Fore
SplineSet
108 0 m 2
 108 -11.0380859375 116.961914062 -20 128 -20 c 0
 139.038085938 -20 148 -11.0380859375 148 0 c 2
 148 768 l 2
 148 779.038085938 139.038085938 788 128 788 c 0
 116.961914062 788 108 779.038085938 108 768 c 2
 108 0 l 2
142.139648438 782.139648438 m 2
 129.581054688 794.697265625 108 785.70703125 108 768 c 0
 108 762.48046875 110.240234375 757.48046875 113.860351562 753.860351562 c 2
 497.860351562 369.860351562 l 2
 510.418945312 357.302734375 532 366.29296875 532 384 c 0
 532 389.51953125 529.759765625 394.51953125 526.139648438 398.139648438 c 2
 142.139648438 782.139648438 l 2
497.860351562 398.139648438 m 2
 485.302734375 385.581054688 494.29296875 364 512 364 c 0
 517.51953125 364 522.51953125 366.240234375 526.139648438 369.860351562 c 2
 910.139648438 753.860351562 l 2
 922.697265625 766.418945312 913.70703125 788 896 788 c 0
 890.48046875 788 885.48046875 785.759765625 881.860351562 782.139648438 c 2
 497.860351562 398.139648438 l 2
916 768 m 2
 916 779.038085938 907.038085938 788 896 788 c 0
 884.961914062 788 876 779.038085938 876 768 c 2
 876 0 l 2
 876 -11.0380859375 884.961914062 -20 896 -20 c 0
 907.038085938 -20 916 -11.0380859375 916 0 c 2
 916 768 l 2
EndSplineSet
EndChar

StartChar: P
Encoding: 80 80 43
Width: 768
Flags: HW
LayerCount: 2
Fore
SplineSet
108 0 m 2
 108 -11.0380859375 116.961914062 -20 128 -20 c 0
 139.038085938 -20 148 -11.0380859375 148 0 c 2
 148 768 l 2
 148 779.038085938 139.038085938 788 128 788 c 0
 116.961914062 788 108 779.038085938 108 768 c 2
 108 0 l 2
128 788 m 2
 116.961914062 788 108 779.038085938 108 768 c 0
 108 756.961914062 116.961914062 748 128 748 c 2
 512 748 l 2
 523.038085938 748 532 756.961914062 532 768 c 0
 532 779.038085938 523.038085938 788 512 788 c 2
 128 788 l 2
526.139648438 782.139648438 m 2
 513.581054688 794.697265625 492 785.70703125 492 768 c 0
 492 762.48046875 494.240234375 757.48046875 497.860351562 753.860351562 c 2
 625.860351562 625.860351562 l 2
 638.418945312 613.302734375 660 622.29296875 660 640 c 0
 660 645.51953125 657.759765625 650.51953125 654.139648438 654.139648438 c 2
 526.139648438 782.139648438 l 2
660 640 m 2
 660 651.038085938 651.038085938 660 640 660 c 0
 628.961914062 660 620 651.038085938 620 640 c 2
 620 512 l 2
 620 500.961914062 628.961914062 492 640 492 c 0
 651.038085938 492 660 500.961914062 660 512 c 2
 660 640 l 2
654.139648438 497.860351562 m 2
 666.697265625 510.418945312 657.70703125 532 640 532 c 0
 634.48046875 532 629.48046875 529.759765625 625.860351562 526.139648438 c 2
 497.860351562 398.139648438 l 2
 485.302734375 385.581054688 494.29296875 364 512 364 c 0
 517.51953125 364 522.51953125 366.240234375 526.139648438 369.860351562 c 2
 654.139648438 497.860351562 l 2
512 364 m 2
 523.038085938 364 532 372.961914062 532 384 c 0
 532 395.038085938 523.038085938 404 512 404 c 2
 128 404 l 2
 116.961914062 404 108 395.038085938 108 384 c 0
 108 372.961914062 116.961914062 364 128 364 c 2
 512 364 l 2
EndSplineSet
EndChar

StartChar: T
Encoding: 84 84 44
Width: 768
Flags: HW
LayerCount: 2
Fore
SplineSet
128 788 m 2
 116.961914062 788 108 779.038085938 108 768 c 0
 108 756.961914062 116.961914062 748 128 748 c 2
 640 748 l 2
 651.038085938 748 660 756.961914062 660 768 c 0
 660 779.038085938 651.038085938 788 640 788 c 2
 128 788 l 2
404 768 m 2
 404 779.038085938 395.038085938 788 384 788 c 0
 372.961914062 788 364 779.038085938 364 768 c 2
 364 0 l 2
 364 -11.0380859375 372.961914062 -20 384 -20 c 0
 395.038085938 -20 404 -11.0380859375 404 0 c 2
 404 768 l 2
EndSplineSet
EndChar

StartChar: X
Encoding: 88 88 45
Width: 768
Flags: HW
LayerCount: 2
Fore
SplineSet
148 768 m 2
 148 779.038085938 139.038085938 788 128 788 c 0
 116.961914062 788 108 779.038085938 108 768 c 2
 108 640 l 2
 108 628.961914062 116.961914062 620 128 620 c 0
 139.038085938 620 148 628.961914062 148 640 c 2
 148 768 l 2
142.139648438 654.139648438 m 2
 129.581054688 666.697265625 108 657.70703125 108 640 c 0
 108 634.48046875 110.240234375 629.48046875 113.860351562 625.860351562 c 2
 625.860351562 113.860351562 l 2
 638.418945312 101.302734375 660 110.29296875 660 128 c 0
 660 133.51953125 657.759765625 138.51953125 654.139648438 142.139648438 c 2
 142.139648438 654.139648438 l 2
660 128 m 2
 660 139.038085938 651.038085938 148 640 148 c 0
 628.961914062 148 620 139.038085938 620 128 c 2
 620 0 l 2
 620 -11.0380859375 628.961914062 -20 640 -20 c 0
 651.038085938 -20 660 -11.0380859375 660 0 c 2
 660 128 l 2
660 768 m 2
 660 779.038085938 651.038085938 788 640 788 c 0
 628.961914062 788 620 779.038085938 620 768 c 2
 620 640 l 2
 620 628.961914062 628.961914062 620 640 620 c 0
 651.038085938 620 660 628.961914062 660 640 c 2
 660 768 l 2
654.139648438 625.860351562 m 2
 666.697265625 638.418945312 657.70703125 660 640 660 c 0
 634.48046875 660 629.48046875 657.759765625 625.860351562 654.139648438 c 2
 113.860351562 142.139648438 l 2
 101.302734375 129.581054688 110.29296875 108 128 108 c 0
 133.51953125 108 138.51953125 110.240234375 142.139648438 113.860351562 c 2
 654.139648438 625.860351562 l 2
148 128 m 2
 148 139.038085938 139.038085938 148 128 148 c 0
 116.961914062 148 108 139.038085938 108 128 c 2
 108 0 l 2
 108 -11.0380859375 116.961914062 -20 128 -20 c 0
 139.038085938 -20 148 -11.0380859375 148 0 c 2
 148 128 l 2
EndSplineSet
EndChar

StartChar: uni0422
Encoding: 1058 1058 46
Width: 768
Flags: HW
LayerCount: 2
Fore
SplineSet
128 788 m 2
 116.961914062 788 108 779.038085938 108 768 c 0
 108 756.961914062 116.961914062 748 128 748 c 2
 640 748 l 2
 651.038085938 748 660 756.961914062 660 768 c 0
 660 779.038085938 651.038085938 788 640 788 c 2
 128 788 l 2
404 768 m 2
 404 779.038085938 395.038085938 788 384 788 c 0
 372.961914062 788 364 779.038085938 364 768 c 2
 364 0 l 2
 364 -11.0380859375 372.961914062 -20 384 -20 c 0
 395.038085938 -20 404 -11.0380859375 404 0 c 2
 404 768 l 2
EndSplineSet
EndChar

StartChar: uni0423
Encoding: 1059 1059 47
Width: 768
Flags: HW
LayerCount: 2
Fore
SplineSet
148 768 m 2
 148 779.038085938 139.038085938 788 128 788 c 0
 116.961914062 788 108 779.038085938 108 768 c 2
 108 512 l 2
 108 500.961914062 116.961914062 492 128 492 c 0
 139.038085938 492 148 500.961914062 148 512 c 2
 148 768 l 2
142.139648438 526.139648438 m 2
 129.581054688 538.697265625 108 529.70703125 108 512 c 0
 108 506.48046875 110.240234375 501.48046875 113.860351562 497.860351562 c 2
 241.860351562 369.860351562 l 2
 254.418945312 357.302734375 276 366.29296875 276 384 c 0
 276 389.51953125 273.759765625 394.51953125 270.139648438 398.139648438 c 2
 142.139648438 526.139648438 l 2
256 404 m 2
 244.961914062 404 236 395.038085938 236 384 c 0
 236 372.961914062 244.961914062 364 256 364 c 2
 640 364 l 2
 651.038085938 364 660 372.961914062 660 384 c 0
 660 395.038085938 651.038085938 404 640 404 c 2
 256 404 l 2
660 768 m 2
 660 779.038085938 651.038085938 788 640 788 c 0
 628.961914062 788 620 779.038085938 620 768 c 2
 620 128 l 2
 620 116.961914062 628.961914062 108 640 108 c 0
 651.038085938 108 660 116.961914062 660 128 c 2
 660 768 l 2
654.139648438 113.860351562 m 2
 666.697265625 126.418945312 657.70703125 148 640 148 c 0
 634.48046875 148 629.48046875 145.759765625 625.860351562 142.139648438 c 2
 497.860351562 14.1396484375 l 2
 485.302734375 1.5810546875 494.29296875 -20 512 -20 c 0
 517.51953125 -20 522.51953125 -17.759765625 526.139648438 -14.1396484375 c 2
 654.139648438 113.860351562 l 2
512 -20 m 2
 523.038085938 -20 532 -11.0380859375 532 0 c 0
 532 11.0380859375 523.038085938 20 512 20 c 2
 128 20 l 2
 116.961914062 20 108 11.0380859375 108 0 c 0
 108 -11.0380859375 116.961914062 -20 128 -20 c 2
 512 -20 l 2
EndSplineSet
EndChar

StartChar: uni0424
Encoding: 1060 1060 48
Width: 1024
Flags: H
LayerCount: 2
Fore
SplineSet
113.860351562 526.139648438 m 2
 101.302734375 513.581054688 110.29296875 492 128 492 c 0
 133.51953125 492 138.51953125 494.240234375 142.139648438 497.860351562 c 2
 270.139648438 625.860351562 l 2
 282.697265625 638.418945312 273.70703125 660 256 660 c 0
 250.48046875 660 245.48046875 657.759765625 241.860351562 654.139648438 c 2
 113.860351562 526.139648438 l 2
256 660 m 2
 244.961914062 660 236 651.038085938 236 640 c 0
 236 628.961914062 244.961914062 620 256 620 c 2
 768 620 l 2
 779.038085938 620 788 628.961914062 788 640 c 0
 788 651.038085938 779.038085938 660 768 660 c 2
 256 660 l 2
782.139648438 654.139648438 m 2
 769.581054688 666.697265625 748 657.70703125 748 640 c 0
 748 634.48046875 750.240234375 629.48046875 753.860351562 625.860351562 c 2
 881.860351562 497.860351562 l 2
 894.418945312 485.302734375 916 494.29296875 916 512 c 0
 916 517.51953125 913.759765625 522.51953125 910.139648438 526.139648438 c 2
 782.139648438 654.139648438 l 2
916 512 m 2
 916 523.038085938 907.038085938 532 896 532 c 0
 884.961914062 532 876 523.038085938 876 512 c 2
 876 256 l 2
 876 244.961914062 884.961914062 236 896 236 c 0
 907.038085938 236 916 244.961914062 916 256 c 2
 916 512 l 2
910.139648438 241.860351562 m 2
 922.697265625 254.418945312 913.70703125 276 896 276 c 0
 890.48046875 276 885.48046875 273.759765625 881.860351562 270.139648438 c 2
 753.860351562 142.139648438 l 2
 741.302734375 129.581054688 750.29296875 108 768 108 c 0
 773.51953125 108 778.51953125 110.240234375 782.139648438 113.860351562 c 2
 910.139648438 241.860351562 l 2
768 108 m 2
 779.038085938 108 788 116.961914062 788 128 c 0
 788 139.038085938 779.038085938 148 768 148 c 2
 256 148 l 2
 244.961914062 148 236 139.038085938 236 128 c 0
 236 116.961914062 244.961914062 108 256 108 c 2
 768 108 l 2
241.860351562 113.860351562 m 2
 254.418945312 101.302734375 276 110.29296875 276 128 c 0
 276 133.51953125 273.759765625 138.51953125 270.139648438 142.139648438 c 2
 142.139648438 270.139648438 l 2
 129.581054688 282.697265625 108 273.70703125 108 256 c 0
 108 250.48046875 110.240234375 245.48046875 113.860351562 241.860351562 c 2
 241.860351562 113.860351562 l 2
108 256 m 2
 108 244.961914062 116.961914062 236 128 236 c 0
 139.038085938 236 148 244.961914062 148 256 c 2
 148 512 l 2
 148 523.038085938 139.038085938 532 128 532 c 0
 116.961914062 532 108 523.038085938 108 512 c 2
 108 256 l 2
532 768 m 2
 532 779.038085938 523.038085938 788 512 788 c 0
 500.961914062 788 492 779.038085938 492 768 c 2
 492 0 l 2
 492 -11.0380859375 500.961914062 -20 512 -20 c 0
 523.038085938 -20 532 -11.0380859375 532 0 c 2
 532 768 l 2
EndSplineSet
EndChar

StartChar: uni0425
Encoding: 1061 1061 49
Width: 768
Flags: HW
LayerCount: 2
Fore
SplineSet
148 768 m 2
 148 779.038085938 139.038085938 788 128 788 c 0
 116.961914062 788 108 779.038085938 108 768 c 2
 108 640 l 2
 108 628.961914062 116.961914062 620 128 620 c 0
 139.038085938 620 148 628.961914062 148 640 c 2
 148 768 l 2
142.139648438 654.139648438 m 2
 129.581054688 666.697265625 108 657.70703125 108 640 c 0
 108 634.48046875 110.240234375 629.48046875 113.860351562 625.860351562 c 2
 625.860351562 113.860351562 l 2
 638.418945312 101.302734375 660 110.29296875 660 128 c 0
 660 133.51953125 657.759765625 138.51953125 654.139648438 142.139648438 c 2
 142.139648438 654.139648438 l 2
660 128 m 2
 660 139.038085938 651.038085938 148 640 148 c 0
 628.961914062 148 620 139.038085938 620 128 c 2
 620 0 l 2
 620 -11.0380859375 628.961914062 -20 640 -20 c 0
 651.038085938 -20 660 -11.0380859375 660 0 c 2
 660 128 l 2
660 768 m 2
 660 779.038085938 651.038085938 788 640 788 c 0
 628.961914062 788 620 779.038085938 620 768 c 2
 620 640 l 2
 620 628.961914062 628.961914062 620 640 620 c 0
 651.038085938 620 660 628.961914062 660 640 c 2
 660 768 l 2
654.139648438 625.860351562 m 2
 666.697265625 638.418945312 657.70703125 660 640 660 c 0
 634.48046875 660 629.48046875 657.759765625 625.860351562 654.139648438 c 2
 113.860351562 142.139648438 l 2
 101.302734375 129.581054688 110.29296875 108 128 108 c 0
 133.51953125 108 138.51953125 110.240234375 142.139648438 113.860351562 c 2
 654.139648438 625.860351562 l 2
148 128 m 2
 148 139.038085938 139.038085938 148 128 148 c 0
 116.961914062 148 108 139.038085938 108 128 c 2
 108 0 l 2
 108 -11.0380859375 116.961914062 -20 128 -20 c 0
 139.038085938 -20 148 -11.0380859375 148 0 c 2
 148 128 l 2
EndSplineSet
EndChar

StartChar: H
Encoding: 72 72 50
Width: 768
Flags: HW
LayerCount: 2
Fore
SplineSet
148 768 m 2
 148 779.038085938 139.038085938 788 128 788 c 0
 116.961914062 788 108 779.038085938 108 768 c 2
 108 0 l 2
 108 -11.0380859375 116.961914062 -20 128 -20 c 0
 139.038085938 -20 148 -11.0380859375 148 0 c 2
 148 768 l 2
660 768 m 2
 660 779.038085938 651.038085938 788 640 788 c 0
 628.961914062 788 620 779.038085938 620 768 c 2
 620 0 l 2
 620 -11.0380859375 628.961914062 -20 640 -20 c 0
 651.038085938 -20 660 -11.0380859375 660 0 c 2
 660 768 l 2
128 404 m 2
 116.961914062 404 108 395.038085938 108 384 c 0
 108 372.961914062 116.961914062 364 128 364 c 2
 640 364 l 2
 651.038085938 364 660 372.961914062 660 384 c 0
 660 395.038085938 651.038085938 404 640 404 c 2
 128 404 l 2
EndSplineSet
EndChar

StartChar: uni0426
Encoding: 1062 1062 51
Width: 768
Flags: HW
LayerCount: 2
Fore
SplineSet
148 768 m 2
 148 779.038085938 139.038085938 788 128 788 c 0
 116.961914062 788 108 779.038085938 108 768 c 2
 108 0 l 2
 108 -11.0380859375 116.961914062 -20 128 -20 c 0
 139.038085938 -20 148 -11.0380859375 148 0 c 2
 148 768 l 2
128 20 m 2
 116.961914062 20 108 11.0380859375 108 0 c 0
 108 -11.0380859375 116.961914062 -20 128 -20 c 2
 768 -20 l 2
 779.038085938 -20 788 -11.0380859375 788 0 c 0
 788 11.0380859375 779.038085938 20 768 20 c 2
 128 20 l 2
788 0 m 2
 788 11.0380859375 779.038085938 20 768 20 c 0
 756.961914062 20 748 11.0380859375 748 0 c 2
 748 -128 l 2
 748 -139.038085938 756.961914062 -148 768 -148 c 0
 779.038085938 -148 788 -139.038085938 788 -128 c 2
 788 0 l 2
660 768 m 2
 660 779.038085938 651.038085938 788 640 788 c 0
 628.961914062 788 620 779.038085938 620 768 c 2
 620 0 l 2
 620 -11.0380859375 628.961914062 -20 640 -20 c 0
 651.038085938 -20 660 -11.0380859375 660 0 c 2
 660 768 l 2
EndSplineSet
EndChar

StartChar: uni0427
Encoding: 1063 1063 52
Width: 768
Flags: HW
LayerCount: 2
Fore
SplineSet
148 768 m 2
 148 779.038085938 139.038085938 788 128 788 c 0
 116.961914062 788 108 779.038085938 108 768 c 2
 108 512 l 2
 108 500.961914062 116.961914062 492 128 492 c 0
 139.038085938 492 148 500.961914062 148 512 c 2
 148 768 l 2
142.139648438 526.139648438 m 2
 129.581054688 538.697265625 108 529.70703125 108 512 c 0
 108 506.48046875 110.240234375 501.48046875 113.860351562 497.860351562 c 2
 241.860351562 369.860351562 l 2
 254.418945312 357.302734375 276 366.29296875 276 384 c 0
 276 389.51953125 273.759765625 394.51953125 270.139648438 398.139648438 c 2
 142.139648438 526.139648438 l 2
256 404 m 2
 244.961914062 404 236 395.038085938 236 384 c 0
 236 372.961914062 244.961914062 364 256 364 c 2
 640 364 l 2
 651.038085938 364 660 372.961914062 660 384 c 0
 660 395.038085938 651.038085938 404 640 404 c 2
 256 404 l 2
660 768 m 2
 660 779.038085938 651.038085938 788 640 788 c 0
 628.961914062 788 620 779.038085938 620 768 c 2
 620 0 l 2
 620 -11.0380859375 628.961914062 -20 640 -20 c 0
 651.038085938 -20 660 -11.0380859375 660 0 c 2
 660 768 l 2
EndSplineSet
EndChar

StartChar: uni0428
Encoding: 1064 1064 53
Width: 1024
Flags: H
LayerCount: 2
Fore
SplineSet
148 768 m 2
 148 779.038085938 139.038085938 788 128 788 c 0
 116.961914062 788 108 779.038085938 108 768 c 2
 108 0 l 2
 108 -11.0380859375 116.961914062 -20 128 -20 c 0
 139.038085938 -20 148 -11.0380859375 148 0 c 2
 148 768 l 2
128 20 m 2
 116.961914062 20 108 11.0380859375 108 0 c 0
 108 -11.0380859375 116.961914062 -20 128 -20 c 2
 896 -20 l 2
 907.038085938 -20 916 -11.0380859375 916 0 c 0
 916 11.0380859375 907.038085938 20 896 20 c 2
 128 20 l 2
876 0 m 2
 876 -11.0380859375 884.961914062 -20 896 -20 c 0
 907.038085938 -20 916 -11.0380859375 916 0 c 2
 916 768 l 2
 916 779.038085938 907.038085938 788 896 788 c 0
 884.961914062 788 876 779.038085938 876 768 c 2
 876 0 l 2
532 768 m 2
 532 779.038085938 523.038085938 788 512 788 c 0
 500.961914062 788 492 779.038085938 492 768 c 2
 492 0 l 2
 492 -11.0380859375 500.961914062 -20 512 -20 c 0
 523.038085938 -20 532 -11.0380859375 532 0 c 2
 532 768 l 2
EndSplineSet
EndChar

StartChar: uni0429
Encoding: 1065 1065 54
Width: 1024
Flags: H
LayerCount: 2
Fore
SplineSet
148 768 m 2
 148 779.038085938 139.038085938 788 128 788 c 0
 116.961914062 788 108 779.038085938 108 768 c 2
 108 0 l 2
 108 -11.0380859375 116.961914062 -20 128 -20 c 0
 139.038085938 -20 148 -11.0380859375 148 0 c 2
 148 768 l 2
128 20 m 2
 116.961914062 20 108 11.0380859375 108 0 c 0
 108 -11.0380859375 116.961914062 -20 128 -20 c 2
 1024 -20 l 2
 1035.03808594 -20 1044 -11.0380859375 1044 0 c 0
 1044 11.0380859375 1035.03808594 20 1024 20 c 2
 128 20 l 2
1044 0 m 2
 1044 11.0380859375 1035.03808594 20 1024 20 c 0
 1012.96191406 20 1004 11.0380859375 1004 0 c 2
 1004 -128 l 2
 1004 -139.038085938 1012.96191406 -148 1024 -148 c 0
 1035.03808594 -148 1044 -139.038085938 1044 -128 c 2
 1044 0 l 2
532 768 m 2
 532 779.038085938 523.038085938 788 512 788 c 0
 500.961914062 788 492 779.038085938 492 768 c 2
 492 0 l 2
 492 -11.0380859375 500.961914062 -20 512 -20 c 0
 523.038085938 -20 532 -11.0380859375 532 0 c 2
 532 768 l 2
916 768 m 2
 916 779.038085938 907.038085938 788 896 788 c 0
 884.961914062 788 876 779.038085938 876 768 c 2
 876 0 l 2
 876 -11.0380859375 884.961914062 -20 896 -20 c 0
 907.038085938 -20 916 -11.0380859375 916 0 c 2
 916 768 l 2
EndSplineSet
EndChar

StartChar: uni042A
Encoding: 1066 1066 55
Width: 768
Flags: HW
LayerCount: 2
Fore
SplineSet
0 788 m 2
 -11.0380859375 788 -20 779.038085938 -20 768 c 0
 -20 756.961914062 -11.0380859375 748 0 748 c 2
 128 748 l 2
 139.038085938 748 148 756.961914062 148 768 c 0
 148 779.038085938 139.038085938 788 128 788 c 2
 0 788 l 2
148 768 m 2
 148 779.038085938 139.038085938 788 128 788 c 0
 116.961914062 788 108 779.038085938 108 768 c 2
 108 0 l 2
 108 -11.0380859375 116.961914062 -20 128 -20 c 0
 139.038085938 -20 148 -11.0380859375 148 0 c 2
 148 768 l 2
128 20 m 2
 116.961914062 20 108 11.0380859375 108 0 c 0
 108 -11.0380859375 116.961914062 -20 128 -20 c 2
 512 -20 l 2
 523.038085938 -20 532 -11.0380859375 532 0 c 0
 532 11.0380859375 523.038085938 20 512 20 c 2
 128 20 l 2
497.860351562 14.1396484375 m 2
 485.302734375 1.5810546875 494.29296875 -20 512 -20 c 0
 517.51953125 -20 522.51953125 -17.759765625 526.139648438 -14.1396484375 c 2
 654.139648438 113.860351562 l 2
 666.697265625 126.418945312 657.70703125 148 640 148 c 0
 634.48046875 148 629.48046875 145.759765625 625.860351562 142.139648438 c 2
 497.860351562 14.1396484375 l 2
620 128 m 2
 620 116.961914062 628.961914062 108 640 108 c 0
 651.038085938 108 660 116.961914062 660 128 c 2
 660 256 l 2
 660 267.038085938 651.038085938 276 640 276 c 0
 628.961914062 276 620 267.038085938 620 256 c 2
 620 128 l 2
625.860351562 241.860351562 m 2
 638.418945312 229.302734375 660 238.29296875 660 256 c 0
 660 261.51953125 657.759765625 266.51953125 654.139648438 270.139648438 c 2
 526.139648438 398.139648438 l 2
 513.581054688 410.697265625 492 401.70703125 492 384 c 0
 492 378.48046875 494.240234375 373.48046875 497.860351562 369.860351562 c 2
 625.860351562 241.860351562 l 2
512 364 m 2
 523.038085938 364 532 372.961914062 532 384 c 0
 532 395.038085938 523.038085938 404 512 404 c 2
 128 404 l 2
 116.961914062 404 108 395.038085938 108 384 c 0
 108 372.961914062 116.961914062 364 128 364 c 2
 512 364 l 2
EndSplineSet
EndChar

StartChar: uni042B
Encoding: 1067 1067 56
Width: 1014
Flags: HW
LayerCount: 2
Fore
SplineSet
148 768 m 2
 148 779.038085938 139.038085938 788 128 788 c 0
 116.961914062 788 108 779.038085938 108 768 c 2
 108 0 l 2
 108 -11.0380859375 116.961914062 -20 128 -20 c 0
 139.038085938 -20 148 -11.0380859375 148 0 c 2
 148 768 l 2
128 20 m 2
 116.961914062 20 108 11.0380859375 108 0 c 0
 108 -11.0380859375 116.961914062 -20 128 -20 c 2
 512 -20 l 2
 523.038085938 -20 532 -11.0380859375 532 0 c 0
 532 11.0380859375 523.038085938 20 512 20 c 2
 128 20 l 2
497.860351562 14.1396484375 m 2
 485.302734375 1.5810546875 494.29296875 -20 512 -20 c 0
 517.51953125 -20 522.51953125 -17.759765625 526.139648438 -14.1396484375 c 2
 654.139648438 113.860351562 l 2
 666.697265625 126.418945312 657.70703125 148 640 148 c 0
 634.48046875 148 629.48046875 145.759765625 625.860351562 142.139648438 c 2
 497.860351562 14.1396484375 l 2
620 128 m 2
 620 116.961914062 628.961914062 108 640 108 c 0
 651.038085938 108 660 116.961914062 660 128 c 2
 660 256 l 2
 660 267.038085938 651.038085938 276 640 276 c 0
 628.961914062 276 620 267.038085938 620 256 c 2
 620 128 l 2
625.860351562 241.860351562 m 2
 638.418945312 229.302734375 660 238.29296875 660 256 c 0
 660 261.51953125 657.759765625 266.51953125 654.139648438 270.139648438 c 2
 526.139648438 398.139648438 l 2
 513.581054688 410.697265625 492 401.70703125 492 384 c 0
 492 378.48046875 494.240234375 373.48046875 497.860351562 369.860351562 c 2
 625.860351562 241.860351562 l 2
512 364 m 2
 523.038085938 364 532 372.961914062 532 384 c 0
 532 395.038085938 523.038085938 404 512 404 c 2
 128 404 l 2
 116.961914062 404 108 395.038085938 108 384 c 0
 108 372.961914062 116.961914062 364 128 364 c 2
 512 364 l 2
916 768 m 2
 916 779.038085938 907.038085938 788 896 788 c 0
 884.961914062 788 876 779.038085938 876 768 c 2
 876 0 l 2
 876 -11.0380859375 884.961914062 -20 896 -20 c 0
 907.038085938 -20 916 -11.0380859375 916 0 c 2
 916 768 l 2
EndSplineSet
EndChar

StartChar: uni042C
Encoding: 1068 1068 57
Width: 768
Flags: HW
LayerCount: 2
Fore
SplineSet
148 768 m 2
 148 779.038085938 139.038085938 788 128 788 c 0
 116.961914062 788 108 779.038085938 108 768 c 2
 108 0 l 2
 108 -11.0380859375 116.961914062 -20 128 -20 c 0
 139.038085938 -20 148 -11.0380859375 148 0 c 2
 148 768 l 2
128 20 m 2
 116.961914062 20 108 11.0380859375 108 0 c 0
 108 -11.0380859375 116.961914062 -20 128 -20 c 2
 512 -20 l 2
 523.038085938 -20 532 -11.0380859375 532 0 c 0
 532 11.0380859375 523.038085938 20 512 20 c 2
 128 20 l 2
497.860351562 14.1396484375 m 2
 485.302734375 1.5810546875 494.29296875 -20 512 -20 c 0
 517.51953125 -20 522.51953125 -17.759765625 526.139648438 -14.1396484375 c 2
 654.139648438 113.860351562 l 2
 666.697265625 126.418945312 657.70703125 148 640 148 c 0
 634.48046875 148 629.48046875 145.759765625 625.860351562 142.139648438 c 2
 497.860351562 14.1396484375 l 2
620 128 m 2
 620 116.961914062 628.961914062 108 640 108 c 0
 651.038085938 108 660 116.961914062 660 128 c 2
 660 256 l 2
 660 267.038085938 651.038085938 276 640 276 c 0
 628.961914062 276 620 267.038085938 620 256 c 2
 620 128 l 2
625.860351562 241.860351562 m 2
 638.418945312 229.302734375 660 238.29296875 660 256 c 0
 660 261.51953125 657.759765625 266.51953125 654.139648438 270.139648438 c 2
 526.139648438 398.139648438 l 2
 513.581054688 410.697265625 492 401.70703125 492 384 c 0
 492 378.48046875 494.240234375 373.48046875 497.860351562 369.860351562 c 2
 625.860351562 241.860351562 l 2
512 364 m 2
 523.038085938 364 532 372.961914062 532 384 c 0
 532 395.038085938 523.038085938 404 512 404 c 2
 128 404 l 2
 116.961914062 404 108 395.038085938 108 384 c 0
 108 372.961914062 116.961914062 364 128 364 c 2
 512 364 l 2
EndSplineSet
EndChar

StartChar: uni042D
Encoding: 1069 1069 58
Width: 768
Flags: HW
LayerCount: 2
Fore
SplineSet
113.860351562 654.139648438 m 2
 101.302734375 641.581054688 110.29296875 620 128 620 c 0
 133.51953125 620 138.51953125 622.240234375 142.139648438 625.860351562 c 2
 270.139648438 753.860351562 l 2
 282.697265625 766.418945312 273.70703125 788 256 788 c 0
 250.48046875 788 245.48046875 785.759765625 241.860351562 782.139648438 c 2
 113.860351562 654.139648438 l 2
256 788 m 2
 244.961914062 788 236 779.038085938 236 768 c 0
 236 756.961914062 244.961914062 748 256 748 c 2
 512 748 l 2
 523.038085938 748 532 756.961914062 532 768 c 0
 532 779.038085938 523.038085938 788 512 788 c 2
 256 788 l 2
526.139648438 782.139648438 m 2
 513.581054688 794.697265625 492 785.70703125 492 768 c 0
 492 762.48046875 494.240234375 757.48046875 497.860351562 753.860351562 c 2
 625.860351562 625.860351562 l 2
 638.418945312 613.302734375 660 622.29296875 660 640 c 0
 660 645.51953125 657.759765625 650.51953125 654.139648438 654.139648438 c 2
 526.139648438 782.139648438 l 2
660 640 m 2
 660 651.038085938 651.038085938 660 640 660 c 0
 628.961914062 660 620 651.038085938 620 640 c 2
 620 128 l 2
 620 116.961914062 628.961914062 108 640 108 c 0
 651.038085938 108 660 116.961914062 660 128 c 2
 660 640 l 2
654.139648438 113.860351562 m 2
 666.697265625 126.418945312 657.70703125 148 640 148 c 0
 634.48046875 148 629.48046875 145.759765625 625.860351562 142.139648438 c 2
 497.860351562 14.1396484375 l 2
 485.302734375 1.5810546875 494.29296875 -20 512 -20 c 0
 517.51953125 -20 522.51953125 -17.759765625 526.139648438 -14.1396484375 c 2
 654.139648438 113.860351562 l 2
512 -20 m 2
 523.038085938 -20 532 -11.0380859375 532 0 c 0
 532 11.0380859375 523.038085938 20 512 20 c 2
 256 20 l 2
 244.961914062 20 236 11.0380859375 236 0 c 0
 236 -11.0380859375 244.961914062 -20 256 -20 c 2
 512 -20 l 2
241.860351562 -14.1396484375 m 2
 254.418945312 -26.697265625 276 -17.70703125 276 0 c 0
 276 5.51953125 273.759765625 10.51953125 270.139648438 14.1396484375 c 2
 142.139648438 142.139648438 l 2
 129.581054688 154.697265625 108 145.70703125 108 128 c 0
 108 122.48046875 110.240234375 117.48046875 113.860351562 113.860351562 c 2
 241.860351562 -14.1396484375 l 2
256 404 m 2
 244.961914062 404 236 395.038085938 236 384 c 0
 236 372.961914062 244.961914062 364 256 364 c 2
 640 364 l 2
 651.038085938 364 660 372.961914062 660 384 c 0
 660 395.038085938 651.038085938 404 640 404 c 2
 256 404 l 2
EndSplineSet
EndChar

StartChar: uni042E
Encoding: 1070 1070 59
Width: 1024
Flags: H
LayerCount: 2
Fore
SplineSet
148 768 m 2
 148 779.038085938 139.038085938 788 128 788 c 0
 116.961914062 788 108 779.038085938 108 768 c 2
 108 0 l 2
 108 -11.0380859375 116.961914062 -20 128 -20 c 0
 139.038085938 -20 148 -11.0380859375 148 0 c 2
 148 768 l 2
128 404 m 2
 116.961914062 404 108 395.038085938 108 384 c 0
 108 372.961914062 116.961914062 364 128 364 c 2
 384 364 l 2
 395.038085938 364 404 372.961914062 404 384 c 0
 404 395.038085938 395.038085938 404 384 404 c 2
 128 404 l 2
369.860351562 654.139648438 m 2
 357.302734375 641.581054688 366.29296875 620 384 620 c 0
 389.51953125 620 394.51953125 622.240234375 398.139648438 625.860351562 c 2
 526.139648438 753.860351562 l 2
 538.697265625 766.418945312 529.70703125 788 512 788 c 0
 506.48046875 788 501.48046875 785.759765625 497.860351562 782.139648438 c 2
 369.860351562 654.139648438 l 2
512 788 m 2
 500.961914062 788 492 779.038085938 492 768 c 0
 492 756.961914062 500.961914062 748 512 748 c 2
 768 748 l 2
 779.038085938 748 788 756.961914062 788 768 c 0
 788 779.038085938 779.038085938 788 768 788 c 2
 512 788 l 2
782.139648438 782.139648438 m 2
 769.581054688 794.697265625 748 785.70703125 748 768 c 0
 748 762.48046875 750.240234375 757.48046875 753.860351562 753.860351562 c 2
 881.860351562 625.860351562 l 2
 894.418945312 613.302734375 916 622.29296875 916 640 c 0
 916 645.51953125 913.759765625 650.51953125 910.139648438 654.139648438 c 2
 782.139648438 782.139648438 l 2
916 640 m 2
 916 651.038085938 907.038085938 660 896 660 c 0
 884.961914062 660 876 651.038085938 876 640 c 2
 876 128 l 2
 876 116.961914062 884.961914062 108 896 108 c 0
 907.038085938 108 916 116.961914062 916 128 c 2
 916 640 l 2
910.139648438 113.860351562 m 2
 922.697265625 126.418945312 913.70703125 148 896 148 c 0
 890.48046875 148 885.48046875 145.759765625 881.860351562 142.139648438 c 2
 753.860351562 14.1396484375 l 2
 741.302734375 1.5810546875 750.29296875 -20 768 -20 c 0
 773.51953125 -20 778.51953125 -17.759765625 782.139648438 -14.1396484375 c 2
 910.139648438 113.860351562 l 2
768 -20 m 2
 779.038085938 -20 788 -11.0380859375 788 0 c 0
 788 11.0380859375 779.038085938 20 768 20 c 2
 512 20 l 2
 500.961914062 20 492 11.0380859375 492 0 c 0
 492 -11.0380859375 500.961914062 -20 512 -20 c 2
 768 -20 l 2
497.860351562 -14.1396484375 m 2
 510.418945312 -26.697265625 532 -17.70703125 532 0 c 0
 532 5.51953125 529.759765625 10.51953125 526.139648438 14.1396484375 c 2
 398.139648438 142.139648438 l 2
 385.581054688 154.697265625 364 145.70703125 364 128 c 0
 364 122.48046875 366.240234375 117.48046875 369.860351562 113.860351562 c 2
 497.860351562 -14.1396484375 l 2
364 128 m 2
 364 116.961914062 372.961914062 108 384 108 c 0
 395.038085938 108 404 116.961914062 404 128 c 2
 404 640 l 2
 404 651.038085938 395.038085938 660 384 660 c 0
 372.961914062 660 364 651.038085938 364 640 c 2
 364 128 l 2
EndSplineSet
EndChar

StartChar: uni042F
Encoding: 1071 1071 60
Width: 768
Flags: HW
LayerCount: 2
Fore
SplineSet
620 0 m 2
 620 -11.0380859375 628.961914062 -20 640 -20 c 0
 651.038085938 -20 660 -11.0380859375 660 0 c 2
 660 768 l 2
 660 779.038085938 651.038085938 788 640 788 c 0
 628.961914062 788 620 779.038085938 620 768 c 2
 620 0 l 2
640 748 m 2
 651.038085938 748 660 756.961914062 660 768 c 0
 660 779.038085938 651.038085938 788 640 788 c 2
 256 788 l 2
 244.961914062 788 236 779.038085938 236 768 c 0
 236 756.961914062 244.961914062 748 256 748 c 2
 640 748 l 2
270.139648438 753.860351562 m 2
 282.697265625 766.418945312 273.70703125 788 256 788 c 0
 250.48046875 788 245.48046875 785.759765625 241.860351562 782.139648438 c 2
 113.860351562 654.139648438 l 2
 101.302734375 641.581054688 110.29296875 620 128 620 c 0
 133.51953125 620 138.51953125 622.240234375 142.139648438 625.860351562 c 2
 270.139648438 753.860351562 l 2
148 640 m 2
 148 651.038085938 139.038085938 660 128 660 c 0
 116.961914062 660 108 651.038085938 108 640 c 2
 108 512 l 2
 108 500.961914062 116.961914062 492 128 492 c 0
 139.038085938 492 148 500.961914062 148 512 c 2
 148 640 l 2
142.139648438 526.139648438 m 2
 129.581054688 538.697265625 108 529.70703125 108 512 c 0
 108 506.48046875 110.240234375 501.48046875 113.860351562 497.860351562 c 2
 241.860351562 369.860351562 l 2
 254.418945312 357.302734375 276 366.29296875 276 384 c 0
 276 389.51953125 273.759765625 394.51953125 270.139648438 398.139648438 c 2
 142.139648438 526.139648438 l 2
256 404 m 2
 244.961914062 404 236 395.038085938 236 384 c 0
 236 372.961914062 244.961914062 364 256 364 c 2
 640 364 l 2
 651.038085938 364 660 372.961914062 660 384 c 0
 660 395.038085938 651.038085938 404 640 404 c 2
 256 404 l 2
526.139648438 369.860351562 m 2
 538.697265625 382.418945312 529.70703125 404 512 404 c 0
 506.48046875 404 501.48046875 401.759765625 497.860351562 398.139648438 c 2
 113.860351562 14.1396484375 l 2
 101.302734375 1.5810546875 110.29296875 -20 128 -20 c 0
 133.51953125 -20 138.51953125 -17.759765625 142.139648438 -14.1396484375 c 2
 526.139648438 369.860351562 l 2
EndSplineSet
EndChar

StartChar: alpha
Encoding: 945 945 62
Width: 1024
Flags: H
LayerCount: 2
Fore
SplineSet
912 768 m 2
 912 776.831054688 904.831054688 784 896 784 c 0
 887.168945312 784 880 776.831054688 880 768 c 2
 880 640 l 2
 880 631.168945312 887.168945312 624 896 624 c 0
 904.831054688 624 912 631.168945312 912 640 c 2
 912 768 l 2
907.311523438 628.688476562 m 2
 917.357421875 638.735351562 910.165039062 656 896 656 c 0
 891.584960938 656 887.584960938 654.208007812 884.688476562 651.311523438 c 2
 372.688476562 139.311523438 l 2
 362.642578125 129.264648438 369.834960938 112 384 112 c 0
 388.415039062 112 392.415039062 113.791992188 395.311523438 116.688476562 c 2
 907.311523438 628.688476562 l 2
384 112 m 2
 392.831054688 112 400 119.168945312 400 128 c 0
 400 136.831054688 392.831054688 144 384 144 c 2
 256 144 l 2
 247.168945312 144 240 136.831054688 240 128 c 0
 240 119.168945312 247.168945312 112 256 112 c 2
 384 112 l 2
244.688476562 116.688476562 m 2
 254.735351562 106.642578125 272 113.834960938 272 128 c 0
 272 132.415039062 270.208007812 136.415039062 267.311523438 139.311523438 c 2
 139.311523438 267.311523438 l 2
 129.264648438 277.357421875 112 270.165039062 112 256 c 0
 112 251.584960938 113.791992188 247.584960938 116.688476562 244.688476562 c 2
 244.688476562 116.688476562 l 2
112 256 m 2
 112 247.168945312 119.168945312 240 128 240 c 0
 136.831054688 240 144 247.168945312 144 256 c 2
 144 384 l 2
 144 392.831054688 136.831054688 400 128 400 c 0
 119.168945312 400 112 392.831054688 112 384 c 2
 112 256 l 2
116.688476562 395.311523438 m 2
 106.642578125 385.264648438 113.834960938 368 128 368 c 0
 132.415039062 368 136.415039062 369.791992188 139.311523438 372.688476562 c 2
 267.311523438 500.688476562 l 2
 277.357421875 510.735351562 270.165039062 528 256 528 c 0
 251.584960938 528 247.584960938 526.208007812 244.688476562 523.311523438 c 2
 116.688476562 395.311523438 l 2
256 528 m 2
 247.168945312 528 240 520.831054688 240 512 c 0
 240 503.168945312 247.168945312 496 256 496 c 2
 384 496 l 2
 392.831054688 496 400 503.168945312 400 512 c 0
 400 520.831054688 392.831054688 528 384 528 c 2
 256 528 l 2
395.311523438 523.311523438 m 2
 385.264648438 533.357421875 368 526.165039062 368 512 c 0
 368 507.584960938 369.791992188 503.584960938 372.688476562 500.688476562 c 2
 756.688476562 116.688476562 l 2
 766.735351562 106.642578125 784 113.834960938 784 128 c 0
 784 132.415039062 782.208007812 136.415039062 779.311523438 139.311523438 c 2
 395.311523438 523.311523438 l 2
768 144 m 2
 759.168945312 144 752 136.831054688 752 128 c 0
 752 119.168945312 759.168945312 112 768 112 c 2
 896 112 l 2
 904.831054688 112 912 119.168945312 912 128 c 0
 912 136.831054688 904.831054688 144 896 144 c 2
 768 144 l 2
EndSplineSet
EndChar

StartChar: F
Encoding: 70 70 63
Width: 768
Flags: HW
LayerCount: 2
Fore
SplineSet
108 0 m 2
 108 -11.0380859375 116.961914062 -20 128 -20 c 0
 139.038085938 -20 148 -11.0380859375 148 0 c 2
 148 768 l 2
 148 779.038085938 139.038085938 788 128 788 c 0
 116.961914062 788 108 779.038085938 108 768 c 2
 108 0 l 2
128 788 m 2
 116.961914062 788 108 779.038085938 108 768 c 0
 108 756.961914062 116.961914062 748 128 748 c 2
 640 748 l 2
 651.038085938 748 660 756.961914062 660 768 c 0
 660 779.038085938 651.038085938 788 640 788 c 2
 128 788 l 2
128 404 m 2
 116.961914062 404 108 395.038085938 108 384 c 0
 108 372.961914062 116.961914062 364 128 364 c 2
 512 364 l 2
 523.038085938 364 532 372.961914062 532 384 c 0
 532 395.038085938 523.038085938 404 512 404 c 2
 128 404 l 2
EndSplineSet
EndChar

StartChar: G
Encoding: 71 71 64
Width: 768
Flags: HW
LayerCount: 2
Fore
SplineSet
625.860351562 625.860351562 m 2
 638.418945312 613.302734375 660 622.29296875 660 640 c 0
 660 645.51953125 657.759765625 650.51953125 654.139648438 654.139648438 c 2
 526.139648438 782.139648438 l 2
 513.581054688 794.697265625 492 785.70703125 492 768 c 0
 492 762.48046875 494.240234375 757.48046875 497.860351562 753.860351562 c 2
 625.860351562 625.860351562 l 2
512 748 m 2
 523.038085938 748 532 756.961914062 532 768 c 0
 532 779.038085938 523.038085938 788 512 788 c 2
 256 788 l 2
 244.961914062 788 236 779.038085938 236 768 c 0
 236 756.961914062 244.961914062 748 256 748 c 2
 512 748 l 2
270.139648438 753.860351562 m 2
 282.697265625 766.418945312 273.70703125 788 256 788 c 0
 250.48046875 788 245.48046875 785.759765625 241.860351562 782.139648438 c 2
 113.860351562 654.139648438 l 2
 101.302734375 641.581054688 110.29296875 620 128 620 c 0
 133.51953125 620 138.51953125 622.240234375 142.139648438 625.860351562 c 2
 270.139648438 753.860351562 l 2
148 640 m 2
 148 651.038085938 139.038085938 660 128 660 c 0
 116.961914062 660 108 651.038085938 108 640 c 2
 108 128 l 2
 108 116.961914062 116.961914062 108 128 108 c 0
 139.038085938 108 148 116.961914062 148 128 c 2
 148 640 l 2
142.139648438 142.139648438 m 2
 129.581054688 154.697265625 108 145.70703125 108 128 c 0
 108 122.48046875 110.240234375 117.48046875 113.860351562 113.860351562 c 2
 241.860351562 -14.1396484375 l 2
 254.418945312 -26.697265625 276 -17.70703125 276 0 c 0
 276 5.51953125 273.759765625 10.51953125 270.139648438 14.1396484375 c 2
 142.139648438 142.139648438 l 2
256 20 m 2
 244.961914062 20 236 11.0380859375 236 0 c 0
 236 -11.0380859375 244.961914062 -20 256 -20 c 2
 512 -20 l 2
 523.038085938 -20 532 -11.0380859375 532 0 c 0
 532 11.0380859375 523.038085938 20 512 20 c 2
 256 20 l 2
497.860351562 14.1396484375 m 2
 485.302734375 1.5810546875 494.29296875 -20 512 -20 c 0
 517.51953125 -20 522.51953125 -17.759765625 526.139648438 -14.1396484375 c 2
 654.139648438 113.860351562 l 2
 666.697265625 126.418945312 657.70703125 148 640 148 c 0
 634.48046875 148 629.48046875 145.759765625 625.860351562 142.139648438 c 2
 497.860351562 14.1396484375 l 2
620 128 m 2
 620 116.961914062 628.961914062 108 640 108 c 0
 651.038085938 108 660 116.961914062 660 128 c 2
 660 256 l 2
 660 267.038085938 651.038085938 276 640 276 c 0
 628.961914062 276 620 267.038085938 620 256 c 2
 620 128 l 2
640 236 m 2
 651.038085938 236 660 244.961914062 660 256 c 0
 660 267.038085938 651.038085938 276 640 276 c 2
 512 276 l 2
 500.961914062 276 492 267.038085938 492 256 c 0
 492 244.961914062 500.961914062 236 512 236 c 2
 640 236 l 2
EndSplineSet
EndChar

StartChar: I
Encoding: 73 73 65
Width: 512
Flags: HW
LayerCount: 2
Fore
SplineSet
128 788 m 2
 116.961914062 788 108 779.038085938 108 768 c 0
 108 756.961914062 116.961914062 748 128 748 c 2
 384 748 l 2
 395.038085938 748 404 756.961914062 404 768 c 0
 404 779.038085938 395.038085938 788 384 788 c 2
 128 788 l 2
128 20 m 2
 116.961914062 20 108 11.0380859375 108 0 c 0
 108 -11.0380859375 116.961914062 -20 128 -20 c 2
 384 -20 l 2
 395.038085938 -20 404 -11.0380859375 404 0 c 0
 404 11.0380859375 395.038085938 20 384 20 c 2
 128 20 l 2
276 768 m 2
 276 779.038085938 267.038085938 788 256 788 c 0
 244.961914062 788 236 779.038085938 236 768 c 2
 236 0 l 2
 236 -11.0380859375 244.961914062 -20 256 -20 c 0
 267.038085938 -20 276 -11.0380859375 276 0 c 2
 276 768 l 2
EndSplineSet
EndChar

StartChar: J
Encoding: 74 74 66
Width: 768
Flags: HW
LayerCount: 2
Fore
SplineSet
384 788 m 2
 372.961914062 788 364 779.038085938 364 768 c 0
 364 756.961914062 372.961914062 748 384 748 c 2
 640 748 l 2
 651.038085938 748 660 756.961914062 660 768 c 0
 660 779.038085938 651.038085938 788 640 788 c 2
 384 788 l 2
660 768 m 2
 660 779.038085938 651.038085938 788 640 788 c 0
 628.961914062 788 620 779.038085938 620 768 c 2
 620 128 l 2
 620 116.961914062 628.961914062 108 640 108 c 0
 651.038085938 108 660 116.961914062 660 128 c 2
 660 768 l 2
654.139648438 113.860351562 m 2
 666.697265625 126.418945312 657.70703125 148 640 148 c 0
 634.48046875 148 629.48046875 145.759765625 625.860351562 142.139648438 c 2
 497.860351562 14.1396484375 l 2
 485.302734375 1.5810546875 494.29296875 -20 512 -20 c 0
 517.51953125 -20 522.51953125 -17.759765625 526.139648438 -14.1396484375 c 2
 654.139648438 113.860351562 l 2
512 -20 m 2
 523.038085938 -20 532 -11.0380859375 532 0 c 0
 532 11.0380859375 523.038085938 20 512 20 c 2
 256 20 l 2
 244.961914062 20 236 11.0380859375 236 0 c 0
 236 -11.0380859375 244.961914062 -20 256 -20 c 2
 512 -20 l 2
241.860351562 -14.1396484375 m 2
 254.418945312 -26.697265625 276 -17.70703125 276 0 c 0
 276 5.51953125 273.759765625 10.51953125 270.139648438 14.1396484375 c 2
 142.139648438 142.139648438 l 2
 129.581054688 154.697265625 108 145.70703125 108 128 c 0
 108 122.48046875 110.240234375 117.48046875 113.860351562 113.860351562 c 2
 241.860351562 -14.1396484375 l 2
EndSplineSet
EndChar

StartChar: L
Encoding: 76 76 67
Width: 768
Flags: HW
LayerCount: 2
Fore
SplineSet
148 768 m 2
 148 779.038085938 139.038085938 788 128 788 c 0
 116.961914062 788 108 779.038085938 108 768 c 2
 108 0 l 2
 108 -11.0380859375 116.961914062 -20 128 -20 c 0
 139.038085938 -20 148 -11.0380859375 148 0 c 2
 148 768 l 2
128 20 m 2
 116.961914062 20 108 11.0380859375 108 0 c 0
 108 -11.0380859375 116.961914062 -20 128 -20 c 2
 640 -20 l 2
 651.038085938 -20 660 -11.0380859375 660 0 c 0
 660 11.0380859375 651.038085938 20 640 20 c 2
 128 20 l 2
EndSplineSet
EndChar

StartChar: N
Encoding: 78 78 68
Width: 768
Flags: HW
LayerCount: 2
Fore
SplineSet
0 20 m 2
 -11.0380859375 20 -20 11.0380859375 -20 0 c 0
 -20 -11.0380859375 -11.0380859375 -20 0 -20 c 2
 128 -20 l 2
 139.038085938 -20 148 -11.0380859375 148 0 c 0
 148 11.0380859375 139.038085938 20 128 20 c 2
 0 20 l 2
108 0 m 2
 108 -11.0380859375 116.961914062 -20 128 -20 c 0
 139.038085938 -20 148 -11.0380859375 148 0 c 2
 148 768 l 2
 148 779.038085938 139.038085938 788 128 788 c 0
 116.961914062 788 108 779.038085938 108 768 c 2
 108 0 l 2
144.653320312 779.07421875 m 2
 133.721679688 795.470703125 108 787.625 108 768 c 0
 108 763.90625 109.232421875 760.09765625 111.346679688 756.92578125 c 2
 623.346679688 -11.07421875 l 2
 634.278320312 -27.470703125 660 -19.625 660 0 c 0
 660 4.09375 658.767578125 7.90234375 656.653320312 11.07421875 c 2
 144.653320312 779.07421875 l 2
620 0 m 2
 620 -11.0380859375 628.961914062 -20 640 -20 c 0
 651.038085938 -20 660 -11.0380859375 660 0 c 2
 660 768 l 2
 660 779.038085938 651.038085938 788 640 788 c 0
 628.961914062 788 620 779.038085938 620 768 c 2
 620 0 l 2
640 788 m 2
 628.961914062 788 620 779.038085938 620 768 c 0
 620 756.961914062 628.961914062 748 640 748 c 2
 768 748 l 2
 779.038085938 748 788 756.961914062 788 768 c 0
 788 779.038085938 779.038085938 788 768 788 c 2
 640 788 l 2
EndSplineSet
EndChar

StartChar: Q
Encoding: 81 81 69
Width: 768
Flags: HW
LayerCount: 2
Fore
SplineSet
113.860351562 654.139648438 m 2
 101.302734375 641.581054688 110.29296875 620 128 620 c 0
 133.51953125 620 138.51953125 622.240234375 142.139648438 625.860351562 c 2
 270.139648438 753.860351562 l 2
 282.697265625 766.418945312 273.70703125 788 256 788 c 0
 250.48046875 788 245.48046875 785.759765625 241.860351562 782.139648438 c 2
 113.860351562 654.139648438 l 2
256 788 m 2
 244.961914062 788 236 779.038085938 236 768 c 0
 236 756.961914062 244.961914062 748 256 748 c 2
 512 748 l 2
 523.038085938 748 532 756.961914062 532 768 c 0
 532 779.038085938 523.038085938 788 512 788 c 2
 256 788 l 2
526.139648438 782.139648438 m 2
 513.581054688 794.697265625 492 785.70703125 492 768 c 0
 492 762.48046875 494.240234375 757.48046875 497.860351562 753.860351562 c 2
 625.860351562 625.860351562 l 2
 638.418945312 613.302734375 660 622.29296875 660 640 c 0
 660 645.51953125 657.759765625 650.51953125 654.139648438 654.139648438 c 2
 526.139648438 782.139648438 l 2
660 640 m 2
 660 651.038085938 651.038085938 660 640 660 c 0
 628.961914062 660 620 651.038085938 620 640 c 2
 620 128 l 2
 620 116.961914062 628.961914062 108 640 108 c 0
 651.038085938 108 660 116.961914062 660 128 c 2
 660 640 l 2
654.139648438 113.860351562 m 2
 666.697265625 126.418945312 657.70703125 148 640 148 c 0
 634.48046875 148 629.48046875 145.759765625 625.860351562 142.139648438 c 2
 497.860351562 14.1396484375 l 2
 485.302734375 1.5810546875 494.29296875 -20 512 -20 c 0
 517.51953125 -20 522.51953125 -17.759765625 526.139648438 -14.1396484375 c 2
 654.139648438 113.860351562 l 2
512 -20 m 2
 523.038085938 -20 532 -11.0380859375 532 0 c 0
 532 11.0380859375 523.038085938 20 512 20 c 2
 256 20 l 2
 244.961914062 20 236 11.0380859375 236 0 c 0
 236 -11.0380859375 244.961914062 -20 256 -20 c 2
 512 -20 l 2
241.860351562 -14.1396484375 m 2
 254.418945312 -26.697265625 276 -17.70703125 276 0 c 0
 276 5.51953125 273.759765625 10.51953125 270.139648438 14.1396484375 c 2
 142.139648438 142.139648438 l 2
 129.581054688 154.697265625 108 145.70703125 108 128 c 0
 108 122.48046875 110.240234375 117.48046875 113.860351562 113.860351562 c 2
 241.860351562 -14.1396484375 l 2
108 128 m 2
 108 116.961914062 116.961914062 108 128 108 c 0
 139.038085938 108 148 116.961914062 148 128 c 2
 148 640 l 2
 148 651.038085938 139.038085938 660 128 660 c 0
 116.961914062 660 108 651.038085938 108 640 c 2
 108 128 l 2
526.139648438 270.139648438 m 2
 513.581054688 282.697265625 492 273.70703125 492 256 c 0
 492 250.48046875 494.240234375 245.48046875 497.860351562 241.860351562 c 2
 753.860351562 -14.1396484375 l 2
 766.418945312 -26.697265625 788 -17.70703125 788 0 c 0
 788 5.51953125 785.759765625 10.51953125 782.139648438 14.1396484375 c 2
 526.139648438 270.139648438 l 2
EndSplineSet
EndChar

StartChar: R
Encoding: 82 82 70
Width: 768
Flags: HW
LayerCount: 2
Fore
SplineSet
108 0 m 2
 108 -11.0380859375 116.961914062 -20 128 -20 c 0
 139.038085938 -20 148 -11.0380859375 148 0 c 2
 148 768 l 2
 148 779.038085938 139.038085938 788 128 788 c 0
 116.961914062 788 108 779.038085938 108 768 c 2
 108 0 l 2
128 788 m 2
 116.961914062 788 108 779.038085938 108 768 c 0
 108 756.961914062 116.961914062 748 128 748 c 2
 512 748 l 2
 523.038085938 748 532 756.961914062 532 768 c 0
 532 779.038085938 523.038085938 788 512 788 c 2
 128 788 l 2
526.139648438 782.139648438 m 2
 513.581054688 794.697265625 492 785.70703125 492 768 c 0
 492 762.48046875 494.240234375 757.48046875 497.860351562 753.860351562 c 2
 625.860351562 625.860351562 l 2
 638.418945312 613.302734375 660 622.29296875 660 640 c 0
 660 645.51953125 657.759765625 650.51953125 654.139648438 654.139648438 c 2
 526.139648438 782.139648438 l 2
660 640 m 2
 660 651.038085938 651.038085938 660 640 660 c 0
 628.961914062 660 620 651.038085938 620 640 c 2
 620 512 l 2
 620 500.961914062 628.961914062 492 640 492 c 0
 651.038085938 492 660 500.961914062 660 512 c 2
 660 640 l 2
654.139648438 497.860351562 m 2
 666.697265625 510.418945312 657.70703125 532 640 532 c 0
 634.48046875 532 629.48046875 529.759765625 625.860351562 526.139648438 c 2
 497.860351562 398.139648438 l 2
 485.302734375 385.581054688 494.29296875 364 512 364 c 0
 517.51953125 364 522.51953125 366.240234375 526.139648438 369.860351562 c 2
 654.139648438 497.860351562 l 2
512 364 m 2
 523.038085938 364 532 372.961914062 532 384 c 0
 532 395.038085938 523.038085938 404 512 404 c 2
 128 404 l 2
 116.961914062 404 108 395.038085938 108 384 c 0
 108 372.961914062 116.961914062 364 128 364 c 2
 512 364 l 2
270.139648438 398.139648438 m 2
 257.581054688 410.697265625 236 401.70703125 236 384 c 0
 236 378.48046875 238.240234375 373.48046875 241.860351562 369.860351562 c 2
 625.860351562 -14.1396484375 l 2
 638.418945312 -26.697265625 660 -17.70703125 660 0 c 0
 660 5.51953125 657.759765625 10.51953125 654.139648438 14.1396484375 c 2
 270.139648438 398.139648438 l 2
EndSplineSet
EndChar

StartChar: S
Encoding: 83 83 71
Width: 768
Flags: HW
LayerCount: 2
Fore
SplineSet
625.860351562 625.860351562 m 2
 638.418945312 613.302734375 660 622.29296875 660 640 c 0
 660 645.51953125 657.759765625 650.51953125 654.139648438 654.139648438 c 2
 526.139648438 782.139648438 l 2
 513.581054688 794.697265625 492 785.70703125 492 768 c 0
 492 762.48046875 494.240234375 757.48046875 497.860351562 753.860351562 c 2
 625.860351562 625.860351562 l 2
512 748 m 2
 523.038085938 748 532 756.961914062 532 768 c 0
 532 779.038085938 523.038085938 788 512 788 c 2
 256 788 l 2
 244.961914062 788 236 779.038085938 236 768 c 0
 236 756.961914062 244.961914062 748 256 748 c 2
 512 748 l 2
270.139648438 753.860351562 m 2
 282.697265625 766.418945312 273.70703125 788 256 788 c 0
 250.48046875 788 245.48046875 785.759765625 241.860351562 782.139648438 c 2
 113.860351562 654.139648438 l 2
 101.302734375 641.581054688 110.29296875 620 128 620 c 0
 133.51953125 620 138.51953125 622.240234375 142.139648438 625.860351562 c 2
 270.139648438 753.860351562 l 2
148 640 m 2
 148 651.038085938 139.038085938 660 128 660 c 0
 116.961914062 660 108 651.038085938 108 640 c 2
 108 512 l 2
 108 500.961914062 116.961914062 492 128 492 c 0
 139.038085938 492 148 500.961914062 148 512 c 2
 148 640 l 2
142.139648438 526.139648438 m 2
 129.581054688 538.697265625 108 529.70703125 108 512 c 0
 108 506.48046875 110.240234375 501.48046875 113.860351562 497.860351562 c 2
 241.860351562 369.860351562 l 2
 254.418945312 357.302734375 276 366.29296875 276 384 c 0
 276 389.51953125 273.759765625 394.51953125 270.139648438 398.139648438 c 2
 142.139648438 526.139648438 l 2
256 404 m 2
 244.961914062 404 236 395.038085938 236 384 c 0
 236 372.961914062 244.961914062 364 256 364 c 2
 512 364 l 2
 523.038085938 364 532 372.961914062 532 384 c 0
 532 395.038085938 523.038085938 404 512 404 c 2
 256 404 l 2
526.139648438 398.139648438 m 2
 513.581054688 410.697265625 492 401.70703125 492 384 c 0
 492 378.48046875 494.240234375 373.48046875 497.860351562 369.860351562 c 2
 625.860351562 241.860351562 l 2
 638.418945312 229.302734375 660 238.29296875 660 256 c 0
 660 261.51953125 657.759765625 266.51953125 654.139648438 270.139648438 c 2
 526.139648438 398.139648438 l 2
660 256 m 2
 660 267.038085938 651.038085938 276 640 276 c 0
 628.961914062 276 620 267.038085938 620 256 c 2
 620 128 l 2
 620 116.961914062 628.961914062 108 640 108 c 0
 651.038085938 108 660 116.961914062 660 128 c 2
 660 256 l 2
654.139648438 113.860351562 m 2
 666.697265625 126.418945312 657.70703125 148 640 148 c 0
 634.48046875 148 629.48046875 145.759765625 625.860351562 142.139648438 c 2
 497.860351562 14.1396484375 l 2
 485.302734375 1.5810546875 494.29296875 -20 512 -20 c 0
 517.51953125 -20 522.51953125 -17.759765625 526.139648438 -14.1396484375 c 2
 654.139648438 113.860351562 l 2
512 -20 m 2
 523.038085938 -20 532 -11.0380859375 532 0 c 0
 532 11.0380859375 523.038085938 20 512 20 c 2
 256 20 l 2
 244.961914062 20 236 11.0380859375 236 0 c 0
 236 -11.0380859375 244.961914062 -20 256 -20 c 2
 512 -20 l 2
241.860351562 -14.1396484375 m 2
 254.418945312 -26.697265625 276 -17.70703125 276 0 c 0
 276 5.51953125 273.759765625 10.51953125 270.139648438 14.1396484375 c 2
 142.139648438 142.139648438 l 2
 129.581054688 154.697265625 108 145.70703125 108 128 c 0
 108 122.48046875 110.240234375 117.48046875 113.860351562 113.860351562 c 2
 241.860351562 -14.1396484375 l 2
EndSplineSet
EndChar

StartChar: U
Encoding: 85 85 72
Width: 768
Flags: HW
LayerCount: 2
Fore
SplineSet
148 768 m 2
 148 779.038085938 139.038085938 788 128 788 c 0
 116.961914062 788 108 779.038085938 108 768 c 2
 108 128 l 2
 108 116.961914062 116.961914062 108 128 108 c 0
 139.038085938 108 148 116.961914062 148 128 c 2
 148 768 l 2
142.139648438 142.139648438 m 2
 129.581054688 154.697265625 108 145.70703125 108 128 c 0
 108 122.48046875 110.240234375 117.48046875 113.860351562 113.860351562 c 2
 241.860351562 -14.1396484375 l 2
 254.418945312 -26.697265625 276 -17.70703125 276 0 c 0
 276 5.51953125 273.759765625 10.51953125 270.139648438 14.1396484375 c 2
 142.139648438 142.139648438 l 2
256 20 m 2
 244.961914062 20 236 11.0380859375 236 0 c 0
 236 -11.0380859375 244.961914062 -20 256 -20 c 2
 512 -20 l 2
 523.038085938 -20 532 -11.0380859375 532 0 c 0
 532 11.0380859375 523.038085938 20 512 20 c 2
 256 20 l 2
497.860351562 14.1396484375 m 2
 485.302734375 1.5810546875 494.29296875 -20 512 -20 c 0
 517.51953125 -20 522.51953125 -17.759765625 526.139648438 -14.1396484375 c 2
 654.139648438 113.860351562 l 2
 666.697265625 126.418945312 657.70703125 148 640 148 c 0
 634.48046875 148 629.48046875 145.759765625 625.860351562 142.139648438 c 2
 497.860351562 14.1396484375 l 2
620 128 m 2
 620 116.961914062 628.961914062 108 640 108 c 0
 651.038085938 108 660 116.961914062 660 128 c 2
 660 768 l 2
 660 779.038085938 651.038085938 788 640 788 c 0
 628.961914062 788 620 779.038085938 620 768 c 2
 620 128 l 2
EndSplineSet
EndChar

StartChar: V
Encoding: 86 86 73
Width: 768
Flags: HW
LayerCount: 2
Fore
SplineSet
148 768 m 2
 148 779.038085938 139.038085938 788 128 788 c 0
 116.961914062 788 108 779.038085938 108 768 c 2
 108 256 l 2
 108 244.961914062 116.961914062 236 128 236 c 0
 139.038085938 236 148 244.961914062 148 256 c 2
 148 768 l 2
142.139648438 270.139648438 m 2
 129.581054688 282.697265625 108 273.70703125 108 256 c 0
 108 250.48046875 110.240234375 245.48046875 113.860351562 241.860351562 c 2
 369.860351562 -14.1396484375 l 2
 382.418945312 -26.697265625 404 -17.70703125 404 0 c 0
 404 5.51953125 401.759765625 10.51953125 398.139648438 14.1396484375 c 2
 142.139648438 270.139648438 l 2
369.860351562 14.1396484375 m 2
 357.302734375 1.5810546875 366.29296875 -20 384 -20 c 0
 389.51953125 -20 394.51953125 -17.759765625 398.139648438 -14.1396484375 c 2
 654.139648438 241.860351562 l 2
 666.697265625 254.418945312 657.70703125 276 640 276 c 0
 634.48046875 276 629.48046875 273.759765625 625.860351562 270.139648438 c 2
 369.860351562 14.1396484375 l 2
620 256 m 2
 620 244.961914062 628.961914062 236 640 236 c 0
 651.038085938 236 660 244.961914062 660 256 c 2
 660 768 l 2
 660 779.038085938 651.038085938 788 640 788 c 0
 628.961914062 788 620 779.038085938 620 768 c 2
 620 256 l 2
EndSplineSet
EndChar

StartChar: W
Encoding: 87 87 74
Width: 1024
Flags: H
LayerCount: 2
Fore
SplineSet
148 768 m 2
 148 779.038085938 139.038085938 788 128 788 c 0
 116.961914062 788 108 779.038085938 108 768 c 2
 108 256 l 2
 108 244.961914062 116.961914062 236 128 236 c 0
 139.038085938 236 148 244.961914062 148 256 c 2
 148 768 l 2
142.139648438 270.139648438 m 2
 129.581054688 282.697265625 108 273.70703125 108 256 c 0
 108 250.48046875 110.240234375 245.48046875 113.860351562 241.860351562 c 2
 369.860351562 -14.1396484375 l 2
 382.418945312 -26.697265625 404 -17.70703125 404 0 c 0
 404 5.51953125 401.759765625 10.51953125 398.139648438 14.1396484375 c 2
 142.139648438 270.139648438 l 2
369.860351562 14.1396484375 m 2
 357.302734375 1.5810546875 366.29296875 -20 384 -20 c 0
 389.51953125 -20 394.51953125 -17.759765625 398.139648438 -14.1396484375 c 2
 526.139648438 113.860351562 l 2
 538.697265625 126.418945312 529.70703125 148 512 148 c 0
 506.48046875 148 501.48046875 145.759765625 497.860351562 142.139648438 c 2
 369.860351562 14.1396484375 l 2
526.139648438 142.139648438 m 2
 513.581054688 154.697265625 492 145.70703125 492 128 c 0
 492 122.48046875 494.240234375 117.48046875 497.860351562 113.860351562 c 2
 625.860351562 -14.1396484375 l 2
 638.418945312 -26.697265625 660 -17.70703125 660 0 c 0
 660 5.51953125 657.759765625 10.51953125 654.139648438 14.1396484375 c 2
 526.139648438 142.139648438 l 2
625.860351562 14.1396484375 m 2
 613.302734375 1.5810546875 622.29296875 -20 640 -20 c 0
 645.51953125 -20 650.51953125 -17.759765625 654.139648438 -14.1396484375 c 2
 910.139648438 241.860351562 l 2
 922.697265625 254.418945312 913.70703125 276 896 276 c 0
 890.48046875 276 885.48046875 273.759765625 881.860351562 270.139648438 c 2
 625.860351562 14.1396484375 l 2
876 256 m 2
 876 244.961914062 884.961914062 236 896 236 c 0
 907.038085938 236 916 244.961914062 916 256 c 2
 916 768 l 2
 916 779.038085938 907.038085938 788 896 788 c 0
 884.961914062 788 876 779.038085938 876 768 c 2
 876 256 l 2
492 128 m 2
 492 116.961914062 500.961914062 108 512 108 c 0
 523.038085938 108 532 116.961914062 532 128 c 2
 532 384 l 2
 532 395.038085938 523.038085938 404 512 404 c 0
 500.961914062 404 492 395.038085938 492 384 c 2
 492 128 l 2
EndSplineSet
EndChar

StartChar: Y
Encoding: 89 89 75
Width: 768
Flags: HW
LayerCount: 2
Fore
SplineSet
144.653320312 779.07421875 m 2
 133.721679688 795.470703125 108 787.625 108 768 c 0
 108 763.90625 109.232421875 760.09765625 111.346679688 756.92578125 c 2
 367.346679688 372.92578125 l 2
 378.278320312 356.529296875 404 364.375 404 384 c 0
 404 388.09375 402.767578125 391.90234375 400.653320312 395.07421875 c 2
 144.653320312 779.07421875 l 2
367.346679688 395.07421875 m 2
 358.540039062 381.86328125 368.068359375 364 384 364 c 0
 390.944335938 364 397.06640625 367.546875 400.653320312 372.92578125 c 2
 656.653320312 756.92578125 l 2
 665.459960938 770.13671875 655.931640625 788 640 788 c 0
 633.055664062 788 626.93359375 784.453125 623.346679688 779.07421875 c 2
 367.346679688 395.07421875 l 2
404 384 m 2
 404 395.038085938 395.038085938 404 384 404 c 0
 372.961914062 404 364 395.038085938 364 384 c 2
 364 0 l 2
 364 -11.0380859375 372.961914062 -20 384 -20 c 0
 395.038085938 -20 404 -11.0380859375 404 0 c 2
 404 384 l 2
EndSplineSet
EndChar

StartChar: Z
Encoding: 90 90 76
Width: 768
Flags: HW
LayerCount: 2
Fore
SplineSet
128 788 m 2
 116.961914062 788 108 779.038085938 108 768 c 0
 108 756.961914062 116.961914062 748 128 748 c 2
 640 748 l 2
 651.038085938 748 660 756.961914062 660 768 c 0
 660 779.038085938 651.038085938 788 640 788 c 2
 128 788 l 2
656.653320312 756.92578125 m 2
 665.459960938 770.13671875 655.931640625 788 640 788 c 0
 633.055664062 788 626.93359375 784.453125 623.346679688 779.07421875 c 2
 111.346679688 11.07421875 l 2
 102.540039062 -2.13671875 112.068359375 -20 128 -20 c 0
 134.944335938 -20 141.06640625 -16.453125 144.653320312 -11.07421875 c 2
 656.653320312 756.92578125 l 2
128 20 m 2
 116.961914062 20 108 11.0380859375 108 0 c 0
 108 -11.0380859375 116.961914062 -20 128 -20 c 2
 640 -20 l 2
 651.038085938 -20 660 -11.0380859375 660 0 c 0
 660 11.0380859375 651.038085938 20 640 20 c 2
 128 20 l 2
EndSplineSet
EndChar
